<svg width="231" height="71" viewBox="0 0 231 71" fill="none" xmlns="http://www.w3.org/2000/svg">
<rect x="0.095459" y="0.411865" width="229.983" height="70" rx="35" fill="white"/>
<path fill-rule="evenodd" clip-rule="evenodd" d="M59.6504 17.5891L59.6289 17.5518H50.6877L40.0955 35.71L47.3665 48.4322L47.3754 48.4168L50.1242 53.1778L71.1457 53.2718L78.5281 40.6137H78.479L81.2061 35.8902L70.7767 17.638L59.6504 17.5891ZM66.5669 29.6985H66.6226L61.3667 20.5702L69.0469 20.6038L77.7771 35.8826L75.0445 40.6157L67.8834 40.6195L70.3802 36.2951L66.5669 29.6985ZM57.8296 20.5252L61.4134 26.7249L56.4514 26.7248L47.9564 41.4569L47.3769 42.4579L43.529 35.7251L52.3956 20.5252H57.8296ZM54.384 36.2625L58.1691 29.6982L63.1324 29.6985L66.9462 36.296L64.4489 40.6214L56.9027 40.6255L54.384 36.2625ZM49.091 45.4415L50.5311 42.9442L52.6725 39.2452L55.1864 43.5998L62.7314 43.5957L62.7192 43.6168L73.3272 43.6294L69.4422 50.2908L51.8453 50.212L49.091 45.4415Z" fill="#252525"/>
<path d="M135.36 28.4328C136.379 28.4328 137.206 27.6055 137.206 26.5662C137.206 25.5268 136.379 24.7207 135.36 24.7207C134.321 24.7207 133.494 25.5268 133.494 26.5662C133.494 27.6055 134.321 28.4328 135.36 28.4328ZM133.706 40.6934H136.994V30.0874H133.706V40.6934Z" fill="#252525"/>
<path d="M138.907 45.7842H142.132V39.6327C142.747 40.4388 144.147 40.9902 145.611 40.9902C148.771 40.9902 150.68 38.5721 150.596 35.2206C150.51 31.8054 148.538 29.7478 145.589 29.7478C144.083 29.7478 142.662 30.4054 142.068 31.3811L141.898 30.0872H138.907V45.7842ZM142.195 35.3902C142.195 33.7994 143.256 32.7388 144.783 32.7388C146.332 32.7388 147.308 33.8206 147.308 35.3902C147.308 36.9599 146.332 38.0418 144.783 38.0418C143.256 38.0418 142.195 36.9811 142.195 35.3902Z" fill="#252525"/>
<path d="M150.944 37.3418C151.028 39.4842 152.726 40.969 155.398 40.969C157.965 40.969 159.747 39.6115 159.747 37.4266C159.747 35.8569 158.814 34.8176 157.074 34.3932L155.186 33.9266C154.507 33.7569 154.083 33.5872 154.083 33.0357C154.083 32.4842 154.528 32.1236 155.186 32.1236C155.928 32.1236 156.416 32.6115 156.395 33.3327H159.344C159.259 31.1266 157.583 29.7478 155.249 29.7478C152.895 29.7478 151.135 31.1478 151.135 33.269C151.135 34.6902 151.919 35.8569 154.019 36.4085L155.886 36.8964C156.437 37.0448 156.671 37.2994 156.671 37.6599C156.671 38.1902 156.183 38.5297 155.356 38.5297C154.402 38.5297 153.893 38.0842 153.893 37.3418H150.944Z" fill="#252525"/>
<path d="M164.747 40.9692C166.04 40.9692 167.335 40.3753 167.993 39.5056L168.205 40.6934H171.28V30.0874H168.014V35.6025C168.014 37.1934 167.547 38.0632 166.04 38.0632C164.874 38.0632 164.11 37.5328 164.11 35.5601V30.0874H160.844V36.748C160.844 39.2723 162.244 40.9692 164.747 40.9692Z" fill="#252525"/>
<path d="M176.46 40.6932V34.9023C176.46 33.1206 177.415 32.6115 178.348 32.6115C179.388 32.6115 180.067 33.2478 180.067 34.563V40.6932H183.29V34.9023C183.29 33.0993 184.224 32.5902 185.157 32.5902C186.197 32.5902 186.897 33.2266 186.897 34.563V40.6932H190.078V33.7569C190.078 31.3387 188.806 29.7266 186.069 29.7266C184.543 29.7266 183.29 30.469 182.739 31.6145C182.103 30.469 181 29.7266 179.239 29.7266C178.073 29.7266 176.99 30.2569 176.355 31.1053L176.227 30.0872H173.173V40.6932H176.46Z" fill="#252525"/>
<path d="M90.5584 24.998H87.0796V40.6951H96.7099V37.6193H90.5584V24.998Z" fill="#252525"/>
<path d="M97.042 35.3709C97.042 38.7223 99.2905 40.9496 102.684 40.9496C106.057 40.9496 108.306 38.7223 108.306 35.3709C108.306 32.0193 106.057 29.7708 102.684 29.7708C99.2905 29.7708 97.042 32.0193 97.042 35.3709ZM100.33 35.3496C100.33 33.7586 101.263 32.6981 102.684 32.6981C104.084 32.6981 105.018 33.7586 105.018 35.3496C105.018 36.9618 104.084 38.0223 102.684 38.0223C101.263 38.0223 100.33 36.9618 100.33 35.3496Z" fill="#252525"/>
<path d="M108.831 35.2009C108.831 38.404 110.91 40.5676 113.858 40.5676C115.28 40.5676 116.51 40.0586 117.125 39.2313V40.6949C117.125 42.1586 116.213 43.1343 114.601 43.1343C113.158 43.1343 112.161 42.4555 112.098 41.2464H108.789C109.086 44.1525 111.334 46.104 114.41 46.104C118.037 46.104 120.328 43.7495 120.328 40.0162V30.0888H117.38L117.21 31.1707C116.616 30.3009 115.365 29.7283 113.922 29.7283C110.952 29.7283 108.831 31.9555 108.831 35.2009ZM112.14 35.1162C112.14 33.5888 113.158 32.5707 114.452 32.5707C115.958 32.5707 117.061 33.5676 117.061 35.1162C117.061 36.6646 115.98 37.7252 114.474 37.7252C113.18 37.7252 112.14 36.6646 112.14 35.1162Z" fill="#252525"/>
<path d="M121.28 35.3709C121.28 38.7223 123.529 40.9496 126.923 40.9496C130.295 40.9496 132.544 38.7223 132.544 35.3709C132.544 32.0193 130.295 29.7708 126.923 29.7708C123.529 29.7708 121.28 32.0193 121.28 35.3709ZM124.568 35.3496C124.568 33.7586 125.501 32.6981 126.923 32.6981C128.323 32.6981 129.256 33.7586 129.256 35.3496C129.256 36.9618 128.323 38.0223 126.923 38.0223C125.501 38.0223 124.568 36.9618 124.568 35.3496Z" fill="#252525"/>
</svg>
