<svg width="225" height="71" viewBox="0 0 225 71" fill="none" xmlns="http://www.w3.org/2000/svg">
<rect x="0.0830078" y="0.411865" width="224.822" height="70" rx="35" fill="white"/>
<path d="M81.2144 28.8521H84.8829V43.7092H81.2144V28.8521ZM86.3458 38.1207C86.3458 34.4407 88.6315 32.2349 92.0601 32.2349C95.4886 32.2349 97.7744 34.4407 97.7744 38.1207C97.7744 41.8007 95.5686 44.0292 92.0601 44.0292C88.5515 44.0292 86.3458 41.8807 86.3458 38.1207ZM94.1401 38.1207C94.1401 36.0978 93.3515 34.9092 92.0944 34.9092C90.8372 34.9092 90.0601 36.0521 90.0601 38.1207C90.0601 40.1892 90.8372 41.3207 92.0944 41.3207C93.3515 41.3207 94.1629 40.1892 94.1629 38.1321L94.1401 38.1207ZM99.2372 44.475H102.78C102.941 44.8563 103.223 45.1746 103.582 45.3809C103.941 45.5873 104.358 45.6705 104.769 45.6178C106.174 45.6178 106.906 44.8635 106.906 43.7435V41.6864H106.917C106.614 42.3269 106.125 42.8608 105.513 43.2178C104.901 43.5748 104.195 43.7381 103.489 43.6864C100.803 43.6864 99.0201 41.6407 99.0201 38.1207C99.0201 34.6007 100.723 32.4064 103.592 32.4064C104.316 32.3676 105.035 32.5545 105.649 32.9413C106.263 33.3282 106.742 33.896 107.02 34.5664H106.917V32.4978H110.552V43.6292C110.552 46.315 108.174 47.9949 104.677 47.9949C101.5 47.9835 99.4658 46.5321 99.2601 44.4864L99.2372 44.475ZM106.917 38.1207C106.917 36.3264 106.094 35.1949 104.792 35.1949C103.489 35.1949 102.689 36.3378 102.689 38.1207C102.689 39.9035 103.477 40.955 104.792 40.955C106.106 40.955 106.917 39.9835 106.917 38.1207ZM112.003 38.1207C112.003 34.4407 114.289 32.2349 117.717 32.2349C121.146 32.2349 123.431 34.4407 123.431 38.1207C123.431 41.8007 121.214 44.0292 117.717 44.0292C114.22 44.0292 112.026 41.8807 112.026 38.1207H112.003ZM119.797 38.1207C119.797 36.0978 118.997 34.9092 117.752 34.9092C116.506 34.9092 115.717 36.0521 115.717 38.1207C115.717 40.1892 116.494 41.3207 117.752 41.3207C119.009 41.3207 119.82 40.1892 119.82 38.1321L119.797 38.1207ZM124.917 29.7892C124.901 29.4155 124.997 29.0456 125.193 28.7271C125.389 28.4084 125.676 28.1559 126.017 28.0017C126.358 27.8474 126.737 27.7987 127.106 27.8618C127.474 27.9248 127.816 28.0967 128.086 28.3553C128.356 28.614 128.543 28.9475 128.622 29.3131C128.701 29.6787 128.669 30.0596 128.529 30.4067C128.39 30.7539 128.15 31.0515 127.841 31.2612C127.531 31.4709 127.166 31.5832 126.792 31.5835C126.553 31.5896 126.315 31.5481 126.092 31.4616C125.869 31.3749 125.665 31.2449 125.493 31.0791C125.321 30.9132 125.183 30.7148 125.088 30.4953C124.993 30.2759 124.943 30.0397 124.94 29.8007L124.917 29.7892ZM124.917 32.4864H128.632V43.7549H124.974L124.917 32.4864ZM141.992 38.1207C141.992 41.7892 140.346 43.915 137.546 43.915C136.829 43.9592 136.116 43.7823 135.503 43.4083C134.89 43.0343 134.406 42.4811 134.117 41.8235H134.049V47.3778H130.38V32.5207H134.026V34.5321H134.094C134.373 33.8616 134.852 33.2932 135.466 32.9047C136.079 32.5161 136.798 32.3261 137.523 32.3607C140.403 32.3378 142.06 34.4521 142.06 38.1321L141.992 38.1207ZM138.254 38.1207C138.254 36.3378 137.42 35.1835 136.129 35.1835C134.837 35.1835 134.026 36.3264 134.014 38.1207C134.003 39.915 134.837 41.0464 136.129 41.0464C137.42 41.0464 138.323 39.9835 138.323 38.1321L138.254 38.1207ZM148.254 32.2235C151.329 32.2235 153.237 33.675 153.26 36.0064H149.912C149.912 35.195 149.237 34.6921 148.232 34.6921C147.226 34.6921 146.746 35.0807 146.746 35.6635C146.746 36.2464 147.169 36.4292 148.014 36.6007L150.369 37.0807C152.654 37.5607 153.569 38.4749 153.569 40.1778C153.569 42.4635 151.454 44.0178 148.312 44.0178C145.169 44.0178 143.123 42.5092 142.974 40.2121H146.529C146.632 41.0464 147.294 41.5378 148.369 41.5378C149.443 41.5378 149.946 41.195 149.946 40.5892C149.946 39.9835 149.603 39.8807 148.723 39.6978L146.597 39.2521C144.392 38.7835 143.237 37.6292 143.237 35.9035C143.306 33.6635 145.226 32.2349 148.323 32.2349L148.254 32.2235ZM165.854 43.7435H162.3V41.6292H162.231C162.033 42.3345 161.6 42.9508 161.003 43.3767C160.406 43.8026 159.683 44.0126 158.952 43.9721C158.4 43.99 157.849 43.8911 157.338 43.6815C156.827 43.472 156.365 43.1567 155.985 42.7563C155.603 42.3559 155.312 41.8794 155.127 41.3583C154.943 40.8371 154.872 40.2828 154.917 39.7321V32.4978H158.586V38.9435C158.586 40.2692 159.283 40.9892 160.426 40.9892C160.694 40.9872 160.958 40.9276 161.202 40.8147C161.445 40.7017 161.661 40.5378 161.835 40.3342C162.01 40.1305 162.139 39.8917 162.213 39.6341C162.286 39.3764 162.305 39.1059 162.266 38.8407V32.4978H165.923L165.854 43.7435ZM167.626 32.4864H171.191V34.6578H171.272C171.468 33.9621 171.891 33.3515 172.472 32.9213C173.053 32.4913 173.761 32.2659 174.483 32.2807C175.209 32.2176 175.932 32.4274 176.51 32.8691C177.09 33.3108 177.483 33.9528 177.614 34.6692H177.774C178.003 33.9489 178.462 33.3242 179.083 32.8923C179.702 32.4603 180.449 32.2453 181.203 32.2807C181.705 32.2616 182.205 32.3487 182.67 32.5362C183.137 32.7236 183.557 33.0074 183.906 33.3689C184.254 33.7303 184.522 34.1612 184.692 34.6335C184.864 35.1057 184.932 35.6086 184.894 36.1092V43.7549H181.203V37.0464C181.203 35.9035 180.666 35.2635 179.626 35.2635C179.395 35.2598 179.166 35.3059 178.955 35.3987C178.743 35.4916 178.556 35.6291 178.403 35.8017C178.25 35.9744 178.136 36.1779 178.068 36.3987C178.002 36.6195 177.983 36.8521 178.014 37.0807V43.7549H174.517V37.0121C174.517 35.8692 173.957 35.2635 172.952 35.2635C172.718 35.2617 172.488 35.3097 172.275 35.4043C172.061 35.4991 171.871 35.6381 171.716 35.8124C171.562 35.9867 171.446 36.1921 171.378 36.4147C171.308 36.6375 171.287 36.8723 171.317 37.1035V43.7549H167.649L167.626 32.4864Z" fill="#252525"/>
<path d="M73.9573 29.8235C73.9574 27.5488 73.2705 25.3272 71.9866 23.4495C70.7028 21.5719 68.8816 20.1258 66.762 19.3006C64.6423 18.4755 62.3228 18.3098 60.1073 18.8252C57.8918 19.3406 55.8837 20.5131 54.3458 22.1892H40.083V52.292H70.1973V38.2235C71.3792 37.1663 72.325 35.8718 72.9729 34.4244C73.6208 32.977 73.9562 31.4093 73.9573 29.8235ZM68.163 29.8235C68.1653 30.9134 67.8441 31.9796 67.2402 32.887C66.6362 33.7943 65.7768 34.5022 64.7704 34.9208C63.764 35.3396 62.6561 35.4503 61.5868 35.239C60.5175 35.0278 59.5349 34.504 58.7633 33.7341C57.9918 32.9642 57.4661 31.9827 57.2526 30.9138C57.0391 29.845 57.1476 28.7367 57.5641 27.7295C57.9807 26.7223 58.6868 25.8613 59.5928 25.2555C60.499 24.6497 61.5645 24.3263 62.6544 24.3263C64.1134 24.3263 65.5128 24.9051 66.5455 25.9357C67.5783 26.9663 68.16 28.3645 68.163 29.8235ZM64.403 46.4978H45.8773V27.9835H51.523C51.414 28.5909 51.3566 29.2064 51.3516 29.8235C51.3546 32.8203 52.5464 35.6934 54.6655 37.8125C56.7845 39.9315 59.6576 41.1234 62.6544 41.1263C63.2404 41.1232 63.825 41.0735 64.403 40.9778V46.4978Z" fill="#252525"/>
</svg>
