<svg width="150" height="37" viewBox="0 0 150 37" fill="none" xmlns="http://www.w3.org/2000/svg">
<path fill-rule="evenodd" clip-rule="evenodd" d="M19.5549 0.592076L19.5334 0.554688H10.5923L0 18.713L7.27104 31.4352L7.27997 31.4197L10.0287 36.1807L31.0503 36.2747L38.4326 23.6166H38.3835L41.1106 18.8932L30.6813 0.640888L19.5549 0.592076ZM26.4714 12.7014H26.5272L21.2713 3.57309L28.9514 3.60677L37.6816 18.8855L34.9491 23.6186L27.7879 23.6224L30.2847 19.2981L26.4714 12.7014ZM17.7342 3.52809L21.3179 9.72784L16.3559 9.72773L7.8609 24.4598L7.28143 25.4608L3.43351 18.7281L12.3002 3.52809H17.7342ZM14.2885 19.2654L18.0736 12.7012L23.0369 12.7014L26.8507 19.299L24.3534 23.6243L16.8073 23.6284L14.2885 19.2654ZM8.99559 28.4444L10.4356 25.9472L12.5771 22.2482L15.0909 26.6027L22.6359 26.5986L22.6237 26.6197L33.2317 26.6323L29.3467 33.2937L11.7498 33.215L8.99559 28.4444Z" fill="#252525"/>
<path d="M95.2646 11.4358C96.2828 11.4358 97.1101 10.6084 97.1101 9.5691C97.1101 8.52969 96.2828 7.72363 95.2646 7.72363C94.2253 7.72363 93.3979 8.52969 93.3979 9.5691C93.3979 10.6084 94.2253 11.4358 95.2646 11.4358ZM93.6101 23.6963H96.8979V13.0903H93.6101V23.6963Z" fill="#252525"/>
<path d="M98.812 28.7874H102.036V22.6359C102.651 23.442 104.051 23.9934 105.515 23.9934C108.676 23.9934 110.585 21.5753 110.5 18.2238C110.415 14.8085 108.442 12.751 105.494 12.751C103.988 12.751 102.567 13.4085 101.973 14.3843L101.803 13.0904H98.812V28.7874ZM102.1 18.3934C102.1 16.8025 103.161 15.742 104.688 15.742C106.236 15.742 107.212 16.8238 107.212 18.3934C107.212 19.9631 106.236 21.045 104.688 21.045C103.161 21.045 102.1 19.9843 102.1 18.3934Z" fill="#252525"/>
<path d="M110.848 20.345C110.933 22.4874 112.63 23.9722 115.303 23.9722C117.869 23.9722 119.651 22.6146 119.651 20.4298C119.651 18.8601 118.718 17.8208 116.978 17.3964L115.09 16.9298C114.411 16.7601 113.987 16.5904 113.987 16.0389C113.987 15.4874 114.433 15.1268 115.09 15.1268C115.833 15.1268 116.32 15.6146 116.299 16.3359H119.248C119.164 14.1298 117.487 12.751 115.154 12.751C112.799 12.751 111.039 14.151 111.039 16.2722C111.039 17.6934 111.824 18.8601 113.924 19.4116L115.79 19.8995C116.341 20.048 116.575 20.3025 116.575 20.6631C116.575 21.1934 116.087 21.5329 115.26 21.5329C114.306 21.5329 113.797 21.0874 113.797 20.345H110.848Z" fill="#252525"/>
<path d="M124.651 23.9721C125.945 23.9721 127.239 23.3782 127.897 22.5086L128.109 23.6963H131.185V13.0903H127.918V18.6054C127.918 20.1963 127.451 21.0661 125.945 21.0661C124.778 21.0661 124.015 20.5358 124.015 18.563V13.0903H120.748V19.7509C120.748 22.2752 122.148 23.9721 124.651 23.9721Z" fill="#252525"/>
<path d="M136.365 23.6962V17.9053C136.365 16.1235 137.319 15.6144 138.253 15.6144C139.293 15.6144 139.972 16.2507 139.972 17.5659V23.6962H143.195V17.9053C143.195 16.1023 144.128 15.5932 145.062 15.5932C146.102 15.5932 146.802 16.2295 146.802 17.5659V23.6962H149.983V16.7598C149.983 14.3416 148.71 12.7295 145.974 12.7295C144.447 12.7295 143.195 13.4719 142.644 14.6174C142.007 13.4719 140.905 12.7295 139.144 12.7295C137.977 12.7295 136.895 13.2598 136.259 14.1083L136.132 13.0902H133.077V23.6962H136.365Z" fill="#252525"/>
<path d="M50.4627 8.00098H46.9839V23.698H56.6142V20.6222H50.4627V8.00098Z" fill="#252525"/>
<path d="M56.9468 18.3735C56.9468 21.725 59.1953 23.9523 62.5892 23.9523C65.962 23.9523 68.2104 21.725 68.2104 18.3735C68.2104 15.022 65.962 12.7734 62.5892 12.7734C59.1953 12.7734 56.9468 15.022 56.9468 18.3735ZM60.2347 18.3523C60.2347 16.7613 61.168 15.7008 62.5892 15.7008C63.9892 15.7008 64.9226 16.7613 64.9226 18.3523C64.9226 19.9644 63.9892 21.025 62.5892 21.025C61.168 21.025 60.2347 19.9644 60.2347 18.3523Z" fill="#252525"/>
<path d="M68.7357 18.2041C68.7357 21.4072 70.8146 23.5708 73.763 23.5708C75.1843 23.5708 76.4146 23.0618 77.0297 22.2344V23.6981C77.0297 25.1618 76.1176 26.1374 74.5055 26.1374C73.063 26.1374 72.066 25.4587 72.0024 24.2496H68.6934C68.9902 27.1557 71.2388 29.1072 74.3146 29.1072C77.9418 29.1072 80.2327 26.7527 80.2327 23.0193V13.092H77.2842L77.1146 14.1739C76.5206 13.3041 75.2691 12.7314 73.8267 12.7314C70.8569 12.7314 68.7357 14.9587 68.7357 18.2041ZM72.0448 18.1193C72.0448 16.592 73.063 15.5739 74.3569 15.5739C75.863 15.5739 76.966 16.5708 76.966 18.1193C76.966 19.6678 75.8842 20.7283 74.3781 20.7283C73.0842 20.7283 72.0448 19.6678 72.0448 18.1193Z" fill="#252525"/>
<path d="M81.1851 18.3735C81.1851 21.725 83.4335 23.9523 86.8275 23.9523C90.2002 23.9523 92.4487 21.725 92.4487 18.3735C92.4487 15.022 90.2002 12.7734 86.8275 12.7734C83.4335 12.7734 81.1851 15.022 81.1851 18.3735ZM84.4729 18.3523C84.4729 16.7613 85.4063 15.7008 86.8275 15.7008C88.2275 15.7008 89.1608 16.7613 89.1608 18.3523C89.1608 19.9644 88.2275 21.025 86.8275 21.025C85.4063 21.025 84.4729 19.9644 84.4729 18.3523Z" fill="#252525"/>
</svg>
