<svg width="175" height="36" viewBox="0 0 175 36" fill="none" xmlns="http://www.w3.org/2000/svg">
<path d="M56.069 28.9383C55.1874 28.9862 54.3155 28.7356 53.5938 28.2269C53.2924 28.0034 53.0498 27.7098 52.887 27.3716C52.7243 27.0332 52.6465 26.6604 52.6601 26.2853V12.546C52.653 12.4879 52.6591 12.4287 52.6782 12.3733C52.6972 12.3179 52.7286 12.2676 52.7701 12.2261C52.8116 12.1846 52.8618 12.1532 52.9173 12.1342C52.9727 12.1151 53.0318 12.109 53.0899 12.1162H55.5799C55.8615 12.1162 55.9949 12.2644 55.9949 12.546V25.2182C55.9949 25.7814 56.2469 26.063 56.7656 26.063C56.9855 26.072 57.2055 26.0471 57.4177 25.9889C57.7142 25.9889 57.8772 26.0778 57.892 26.3446L58.1143 28.1972C58.125 28.2513 58.124 28.3069 58.1114 28.3606C58.0988 28.4141 58.0748 28.4645 58.041 28.5079C58.0073 28.5515 57.9646 28.5873 57.916 28.613C57.8673 28.6386 57.8136 28.6536 57.7586 28.6567C57.2132 28.8369 56.6433 28.9319 56.069 28.9383Z" fill="#252525"/>
<path d="M70.0752 27.3528C68.8241 28.3866 67.2517 28.952 65.6288 28.952C64.0059 28.952 62.4336 28.3866 61.1824 27.3528C60.0828 26.2427 59.4658 24.7432 59.4658 23.1806C59.4658 21.618 60.0828 20.1186 61.1824 19.0084C62.436 17.98 64.0074 17.418 65.6288 17.418C67.2502 17.418 68.8216 17.98 70.0752 19.0084C71.1496 20.1288 71.7494 21.621 71.7494 23.1732C71.7494 24.7254 71.1496 26.2177 70.0752 27.338V27.3528ZM63.5242 25.3964C64.1049 25.9224 64.8602 26.2137 65.6436 26.2137C66.4271 26.2137 67.1825 25.9224 67.7631 25.3964C68.2886 24.7923 68.5779 24.0185 68.5779 23.2177C68.5779 22.417 68.2886 21.6432 67.7631 21.039C67.1825 20.5131 66.4271 20.2217 65.6436 20.2217C64.8602 20.2217 64.1049 20.5131 63.5242 21.039C62.9988 21.6432 62.7093 22.417 62.7093 23.2177C62.7093 24.0185 62.9988 24.7923 63.5242 25.3964Z" fill="#252525"/>
<path d="M85.4595 17.7928C85.7411 17.7928 85.8745 17.941 85.8745 18.2226V28.8495C85.9004 29.5668 85.7662 30.2808 85.4816 30.9396C85.197 31.5985 84.7693 32.1858 84.2293 32.6586C83.0309 33.6805 81.4898 34.21 79.9164 34.1407C78.4953 34.1906 77.093 33.8026 75.8998 33.0291C75.3902 32.6946 74.9549 32.2587 74.621 31.7488C74.2869 31.2388 74.0614 30.6657 73.9582 30.0648C73.9582 29.7684 73.9582 29.635 74.3584 29.635H76.8483C76.954 29.6386 77.0566 29.6728 77.1433 29.7333C77.2301 29.7937 77.2976 29.8779 77.3375 29.9759C77.499 30.426 77.8209 30.8009 78.2416 31.0282C78.7542 31.2928 79.3248 31.4253 79.9015 31.4136C80.2495 31.4327 80.5978 31.3821 80.9261 31.2651C81.2544 31.1481 81.556 30.9667 81.8135 30.7318C82.0487 30.486 82.2316 30.1951 82.3513 29.8767C82.4711 29.5584 82.525 29.219 82.5101 28.8791V27.9454C81.6186 28.6011 80.5335 28.9402 79.4273 28.9088C78.653 28.9369 77.8811 28.8084 77.1577 28.5308C76.4344 28.2531 75.7747 27.8323 75.218 27.2933C74.1495 26.1879 73.5522 24.7105 73.5522 23.1729C73.5522 21.6355 74.1495 20.1581 75.218 19.0526C75.7774 18.5185 76.4379 18.1017 77.1608 17.8268C77.8838 17.5518 78.6543 17.4244 79.4273 17.4519C80.5655 17.4218 81.6798 17.7829 82.5842 18.4746V18.2374C82.5774 18.1807 82.5833 18.123 82.6015 18.0688C82.6198 18.0147 82.6498 17.9652 82.6896 17.924C82.7293 17.8828 82.7778 17.8511 82.8313 17.8309C82.8849 17.8107 82.9423 17.8029 82.9992 17.8076L85.4595 17.7928ZM79.7089 26.2706C80.0907 26.2824 80.4705 26.2103 80.8213 26.0591C81.1722 25.9081 81.4856 25.6817 81.7394 25.3961C82.2322 24.7598 82.4996 23.9777 82.4996 23.1729C82.4996 22.3681 82.2322 21.5862 81.7394 20.9497C81.4865 20.6681 81.175 20.4451 80.8268 20.2966C80.4785 20.1481 80.1021 20.0777 79.7237 20.0901C79.3374 20.078 78.9533 20.1498 78.5976 20.3009C78.2418 20.4519 77.9232 20.6784 77.6635 20.9646C77.1177 21.5733 76.8306 22.3708 76.8632 23.1878C76.8365 23.9967 77.1172 24.7858 77.6487 25.3961C77.909 25.6816 78.2278 25.9076 78.5833 26.0585C78.9389 26.2094 79.3228 26.2817 79.7089 26.2706Z" fill="#252525"/>
<path d="M98.6655 27.3524C97.4119 28.3809 95.8405 28.9429 94.2191 28.9429C92.5976 28.9429 91.0263 28.3809 89.7727 27.3524C88.6974 26.2296 88.0972 24.735 88.0972 23.1802C88.0972 21.6256 88.6974 20.1309 89.7727 19.008C91.0275 17.9823 92.5984 17.4219 94.2191 17.4219C95.8398 17.4219 97.4107 17.9823 98.6655 19.008C99.7399 20.1284 100.34 21.6206 100.34 23.1728C100.34 24.7251 99.7399 26.2173 98.6655 27.3376V27.3524ZM92.0997 25.396C92.3838 25.6664 92.7187 25.8776 93.0851 26.0175C93.4515 26.1574 93.8419 26.2233 94.2339 26.2112C94.6234 26.2213 95.0111 26.1546 95.3749 26.0147C95.7386 25.8747 96.071 25.6646 96.3534 25.396C96.8703 24.7878 97.1542 24.0156 97.1542 23.2173C97.1542 22.419 96.8703 21.6468 96.3534 21.0386C96.071 20.7702 95.7386 20.5598 95.3749 20.4201C95.0111 20.2802 94.6234 20.2133 94.2339 20.2234C93.8419 20.2114 93.4515 20.2772 93.0851 20.4171C92.7187 20.557 92.3838 20.7684 92.0997 21.0386C91.5828 21.6468 91.299 22.419 91.299 23.2173C91.299 24.0156 91.5828 24.7878 92.0997 25.396Z" fill="#252525"/>
<path d="M105.691 15.2732C105.299 15.6162 104.796 15.8052 104.275 15.8052C103.755 15.8052 103.252 15.6162 102.86 15.2732C102.682 15.1056 102.541 14.9034 102.444 14.6792C102.347 14.4549 102.297 14.2132 102.297 13.969C102.297 13.7247 102.347 13.4831 102.444 13.2587C102.541 13.0345 102.682 12.8323 102.86 12.6647C103.256 12.3303 103.757 12.147 104.275 12.147C104.793 12.147 105.295 12.3303 105.691 12.6647C105.868 12.8323 106.01 13.0345 106.107 13.2587C106.203 13.4831 106.253 13.7247 106.253 13.969C106.253 14.2132 106.203 14.4549 106.107 14.6792C106.01 14.9034 105.868 15.1056 105.691 15.2732ZM106.002 28.9384C105.121 28.9817 104.251 28.7315 103.527 28.227C103.23 28.0003 102.991 27.7056 102.832 27.3678C102.672 27.0301 102.595 26.6589 102.608 26.2854V18.2227C102.601 18.1646 102.607 18.1054 102.626 18.05C102.645 17.9946 102.676 17.9443 102.718 17.9028C102.759 17.8613 102.81 17.8299 102.865 17.8109C102.92 17.7918 102.98 17.7857 103.038 17.7928H105.528C105.809 17.7928 105.943 17.9411 105.943 18.2227V25.2183C105.943 25.7815 106.195 26.0631 106.699 26.0631C106.923 26.0713 107.148 26.0462 107.366 25.989C107.662 25.989 107.825 26.0779 107.84 26.3447L108.062 28.1974C108.073 28.2515 108.072 28.3071 108.059 28.3607C108.047 28.4142 108.023 28.4646 107.989 28.508C107.955 28.5516 107.912 28.5875 107.864 28.6131C107.815 28.6388 107.761 28.6537 107.706 28.6568C107.156 28.8381 106.581 28.9331 106.002 28.9384Z" fill="#252525"/>
<path d="M117.221 17.437C117.999 17.4063 118.775 17.5321 119.503 17.807C120.231 18.0821 120.897 18.5005 121.46 19.0377C122.508 20.1626 123.091 21.6428 123.091 23.1802C123.091 24.7176 122.508 26.198 121.46 27.3227C120.9 27.8648 120.235 28.2873 119.506 28.5649C118.778 28.8427 118 28.9697 117.221 28.9383C116.112 28.963 115.024 28.6248 114.124 27.9749V33.3254C114.124 33.607 113.975 33.7404 113.694 33.7404H111.204C111.147 33.751 111.089 33.7476 111.033 33.7306C110.978 33.7134 110.928 33.6831 110.887 33.6422C110.846 33.6013 110.816 33.5512 110.799 33.496C110.782 33.4408 110.778 33.3823 110.789 33.3254V21.1719C110.806 21.053 110.796 20.9318 110.758 20.8177C110.72 20.7037 110.656 20.6 110.571 20.515C110.486 20.4301 110.383 20.3662 110.269 20.3284C110.155 20.2906 110.033 20.2801 109.914 20.2975H109.425C109.099 20.2975 108.936 20.1789 108.936 19.9418V18.1928C108.929 18.0846 108.958 17.977 109.02 17.8881C109.082 17.799 109.173 17.734 109.277 17.7037C109.79 17.5174 110.332 17.427 110.878 17.437C111.422 17.3888 111.968 17.5042 112.446 17.7682C112.923 18.0323 113.312 18.4331 113.56 18.9191C114.038 18.4362 114.609 18.0557 115.238 17.8008C115.868 17.546 116.543 17.4221 117.221 17.437ZM114.909 25.396C115.173 25.6722 115.491 25.892 115.843 26.0422C116.194 26.1923 116.572 26.2697 116.955 26.2697C117.337 26.2697 117.715 26.1923 118.067 26.0422C118.418 25.892 118.736 25.6722 119 25.396C119.557 24.7751 119.849 23.9616 119.815 23.1283C119.854 22.2945 119.561 21.479 119 20.8607C118.736 20.5845 118.418 20.3647 118.067 20.2146C117.715 20.0643 117.337 19.987 116.955 19.987C116.572 19.987 116.194 20.0643 115.843 20.2146C115.491 20.3647 115.173 20.5845 114.909 20.8607C114.37 21.49 114.089 22.3003 114.124 23.1283C114.094 23.9558 114.374 24.7646 114.909 25.396Z" fill="#252525"/>
<path d="M130.086 28.9384C128.756 28.9931 127.437 28.6749 126.277 28.0195C125.812 27.7393 125.416 27.358 125.118 26.9039C124.821 26.4497 124.629 25.9344 124.558 25.3961C124.558 25.0997 124.662 24.9515 124.988 24.9515H127.167C127.27 24.9556 127.371 24.9881 127.457 25.0457C127.543 25.1032 127.612 25.1834 127.656 25.2775C127.967 26.0779 128.782 26.478 130.086 26.478C130.541 26.4989 130.994 26.4072 131.406 26.2113C131.548 26.1472 131.669 26.0459 131.758 25.9179C131.847 25.79 131.899 25.6403 131.909 25.485C131.909 25.0997 131.672 24.8329 131.198 24.655C130.636 24.4678 130.054 24.3435 129.464 24.2845C128.765 24.2054 128.072 24.0816 127.389 23.914C126.725 23.7637 126.121 23.4177 125.655 22.9209C125.381 22.5833 125.179 22.1928 125.062 21.7738C124.945 21.3548 124.915 20.9161 124.975 20.4852C125.035 20.0542 125.183 19.6401 125.409 19.2688C125.636 18.8974 125.936 18.5767 126.292 18.3263C127.361 17.6459 128.614 17.3143 129.879 17.3778C131.104 17.3364 132.316 17.6394 133.377 18.2522C133.805 18.4946 134.173 18.8291 134.455 19.2316C134.737 19.6342 134.925 20.0945 135.007 20.5792C135.007 20.8756 134.874 21.0238 134.607 21.0238H132.413C132.321 21.0293 132.229 21.0068 132.15 20.9592C132.071 20.9116 132.007 20.8411 131.969 20.757C131.822 20.4061 131.546 20.1248 131.198 19.9715C130.805 19.7661 130.367 19.664 129.923 19.6751C129.489 19.6515 129.056 19.7382 128.664 19.927C128.525 19.9804 128.407 20.0738 128.322 20.1953C128.237 20.3168 128.191 20.4609 128.189 20.6088C128.199 20.8116 128.273 21.0059 128.401 21.1633C128.529 21.3207 128.704 21.4327 128.901 21.4833C129.47 21.6979 130.062 21.847 130.664 21.9279C131.358 22.0192 132.045 22.1479 132.725 22.3133C133.389 22.4637 133.993 22.8095 134.459 23.3063C134.708 23.58 134.9 23.9003 135.025 24.2489C135.15 24.5974 135.204 24.9672 135.185 25.3368C135.198 25.8492 135.078 26.3561 134.836 26.8081C134.594 27.26 134.24 27.6417 133.807 27.9157C132.699 28.6267 131.402 28.9833 130.086 28.9384Z" fill="#252525"/>
<path d="M150.851 28.1975C150.86 28.2501 150.857 28.3039 150.845 28.3556C150.831 28.4075 150.809 28.4561 150.777 28.499C150.745 28.5418 150.705 28.5778 150.66 28.6049C150.614 28.6321 150.563 28.6497 150.51 28.657C149.969 28.8336 149.404 28.9286 148.835 28.9386C148.272 28.997 147.703 28.9089 147.184 28.6831C146.664 28.4572 146.212 28.101 145.871 27.6491C144.824 28.5492 143.47 29.011 142.091 28.9386C141.451 28.9681 140.812 28.8633 140.215 28.631C139.618 28.3988 139.075 28.0441 138.623 27.5898C138.174 27.1139 137.826 26.5522 137.599 25.9384C137.373 25.3247 137.272 24.6715 137.304 24.0179V18.2228C137.304 17.9412 137.437 17.793 137.719 17.793H140.209C140.491 17.793 140.624 17.9412 140.624 18.2228V23.5733C140.597 24.2399 140.824 24.8918 141.261 25.3963C141.479 25.6275 141.745 25.8092 142.038 25.9294C142.331 26.0496 142.649 26.1053 142.966 26.0929C143.29 26.1071 143.615 26.0569 143.92 25.9448C144.226 25.8329 144.506 25.6616 144.744 25.4407C144.97 25.2081 145.146 24.9315 145.26 24.6281C145.376 24.3247 145.426 24.001 145.411 23.677V18.2228C145.411 17.9412 145.545 17.793 145.826 17.793H148.346C148.628 17.793 148.761 17.9412 148.761 18.2228V25.2036C148.761 25.7816 149.013 26.0632 149.502 26.0632C149.732 26.0721 149.961 26.0472 150.184 25.9891C150.24 25.9734 150.299 25.9706 150.356 25.981C150.413 25.9912 150.467 26.0143 150.514 26.0486C150.562 26.0828 150.6 26.1273 150.628 26.1786C150.655 26.2298 150.67 26.2867 150.673 26.3448L150.851 28.1975Z" fill="#252525"/>
<path d="M174.402 28.1971C174.415 28.2502 174.417 28.3056 174.406 28.3593C174.394 28.4128 174.372 28.4635 174.34 28.5073C174.307 28.5512 174.266 28.5874 174.217 28.6131C174.169 28.6391 174.116 28.6539 174.061 28.6566C173.51 28.8358 172.936 28.9308 172.357 28.9382C171.475 28.9837 170.605 28.7333 169.881 28.2268C169.569 28.0098 169.315 27.7191 169.142 27.3805C168.968 27.0418 168.881 26.6655 168.888 26.2852V22.8022C168.92 22.1376 168.697 21.4859 168.266 20.9792C168.058 20.7475 167.801 20.5649 167.514 20.4444C167.227 20.3241 166.917 20.2688 166.606 20.2826C166.326 20.272 166.047 20.3252 165.789 20.4382C165.533 20.5511 165.306 20.721 165.124 20.9347C164.733 21.4313 164.532 22.0521 164.561 22.6836V28.1526C164.561 28.4343 164.427 28.5825 164.146 28.5825H161.641C161.583 28.5897 161.524 28.5835 161.469 28.5645C161.413 28.5454 161.362 28.514 161.321 28.4725C161.279 28.4311 161.248 28.3807 161.229 28.3253C161.209 28.2699 161.204 28.2109 161.211 28.1526V22.8022C161.244 22.1448 161.038 21.4977 160.633 20.9792C160.452 20.7613 160.225 20.5859 159.969 20.4656C159.714 20.3452 159.434 20.2827 159.151 20.2826C158.848 20.2704 158.548 20.3221 158.266 20.4346C157.984 20.547 157.731 20.7174 157.52 20.9347C157.097 21.4155 156.879 22.0436 156.913 22.6836V28.1526C156.92 28.2109 156.914 28.2699 156.895 28.3253C156.876 28.3807 156.845 28.4311 156.803 28.4725C156.762 28.514 156.711 28.5454 156.656 28.5645C156.6 28.5835 156.541 28.5897 156.483 28.5825H154.067C153.786 28.5825 153.652 28.4343 153.652 28.1526V21.1718C153.67 21.053 153.66 20.9317 153.621 20.8176C153.584 20.7036 153.52 20.5999 153.434 20.5149C153.35 20.43 153.246 20.3661 153.132 20.3283C153.018 20.2906 152.896 20.28 152.778 20.2974H152.289C151.962 20.2974 151.799 20.1788 151.799 19.9417V18.1928C151.792 18.0846 151.822 17.977 151.884 17.888C151.946 17.7989 152.037 17.7339 152.14 17.7037C152.653 17.5173 153.196 17.4269 153.741 17.4369C154.264 17.3923 154.79 17.4966 155.257 17.7379C155.724 17.9792 156.112 18.3475 156.379 18.8004C156.879 18.3266 157.472 17.9608 158.119 17.7262C158.767 17.4916 159.456 17.3931 160.144 17.4369C160.812 17.4043 161.478 17.5295 162.088 17.8025C162.699 18.0755 163.236 18.4884 163.656 19.0079C164.147 18.4748 164.75 18.0574 165.422 17.7856C166.093 17.5139 166.816 17.3949 167.54 17.4369C168.186 17.4066 168.832 17.5108 169.437 17.7431C170.041 17.9752 170.591 18.3301 171.052 18.7856C171.503 19.2606 171.851 19.8222 172.078 20.4362C172.305 21.0501 172.405 21.7039 172.371 22.3575V25.218C172.371 25.7812 172.623 26.0628 173.098 26.0628C173.327 26.0735 173.557 26.0486 173.779 25.9887C174.086 25.9887 174.249 26.1073 174.269 26.3445L174.402 28.1971Z" fill="#252525"/>
<path d="M0.607672 15.8661C1.70114 11.4711 4.23359 7.56822 7.80177 4.77906C11.37 1.98985 15.7688 0.474609 20.2977 0.474609C24.8267 0.474609 29.2255 1.98985 32.7937 4.77906C36.3619 7.56822 38.8943 11.4711 39.9878 15.8661H38.2092C35.209 15.8219 32.2702 16.7186 29.8056 18.4301C29.6633 18.5331 29.5148 18.6273 29.3609 18.7117H29.1534C28.9996 18.6273 28.8511 18.5331 28.7088 18.4301C26.2224 16.7582 23.294 15.8652 20.2977 15.8652C17.3015 15.8652 14.3731 16.7582 11.8867 18.4301C11.7444 18.5331 11.5959 18.6273 11.442 18.7117H11.2345C11.0807 18.6273 10.9322 18.5331 10.7899 18.4301C8.32526 16.7186 5.3865 15.8219 2.38622 15.8661H0.607672ZM35.0079 25.159C35.9208 24.448 37.0524 24.076 38.2092 24.1067H40.5955V19.3491H38.2092C36.1716 19.3245 34.1807 19.9587 32.5327 21.1573C31.6053 21.841 30.4835 22.2099 29.3313 22.2099C28.1791 22.2099 27.0573 21.841 26.1299 21.1573C24.4401 19.981 22.4307 19.3504 20.3718 19.3504C18.313 19.3504 16.3036 19.981 14.6138 21.1573C13.6864 21.841 12.5646 22.2099 11.4124 22.2099C10.2602 22.2099 9.13835 21.841 8.21099 21.1573C6.5427 19.9432 4.52316 19.3083 2.46033 19.3491H0V24.1067H2.38622C3.54304 24.076 4.67463 24.448 5.58762 25.159C7.27428 26.3361 9.28153 26.9672 11.3383 26.9672C13.395 26.9672 15.4023 26.3361 17.0889 25.159C18.0031 24.4502 19.1338 24.0785 20.2903 24.1067C21.4476 24.0735 22.5799 24.4458 23.4917 25.159C25.1815 26.3354 27.191 26.9659 29.2498 26.9659C31.3086 26.9659 33.3181 26.3354 35.0079 25.159ZM35.0079 33.6664C35.9208 32.9554 37.0524 32.5834 38.2092 32.6141H40.5955V27.8565H38.2092C36.1716 27.8319 34.1807 28.4661 32.5327 29.6647C31.6053 30.3484 30.4835 30.7173 29.3313 30.7173C28.1791 30.7173 27.0573 30.3484 26.1299 29.6647C24.4401 28.4885 22.4307 27.858 20.3718 27.858C18.313 27.858 16.3036 28.4885 14.6138 29.6647C13.6864 30.3484 12.5646 30.7173 11.4124 30.7173C10.2602 30.7173 9.13835 30.3484 8.21099 29.6647C6.5427 28.4508 4.52316 27.8157 2.46033 27.8565H0V32.6141H2.38622C3.54304 32.5834 4.67463 32.9554 5.58762 33.6664C7.27428 34.8435 9.28153 35.4746 11.3383 35.4746C13.395 35.4746 15.4023 34.8435 17.0889 33.6664C18.0031 32.9577 19.1338 32.5859 20.2903 32.6141C21.4476 32.5809 22.5799 32.9532 23.4917 33.6664C25.1815 34.8428 27.191 35.4733 29.2498 35.4733C31.3086 35.4733 33.3181 34.8428 35.0079 33.6664Z" fill="#252525"/>
</svg>
