<svg width="181" height="36" viewBox="0 0 181 36" fill="none" xmlns="http://www.w3.org/2000/svg">
<path d="M27.132 15.6039C26.6266 16.1123 26.2397 16.7259 25.9986 17.4008C25.7576 18.0759 25.6684 18.7958 25.7373 19.5092L25.7133 19.4852C25.7842 20.3251 25.6709 21.1702 25.3814 21.9618C25.092 22.7532 24.6333 23.472 24.0374 24.068C23.4414 24.6639 22.7226 25.1227 21.931 25.412C21.1396 25.7015 20.2944 25.8148 19.4546 25.7439L19.4786 25.7679C18.4741 25.6744 17.4652 25.893 16.5893 26.3939C15.7136 26.8948 15.0136 27.6536 14.5849 28.567C14.1562 29.4803 14.0196 30.5035 14.1937 31.4974C14.368 32.4911 14.8444 33.407 15.5581 34.12C16.2718 34.8331 17.1881 35.3087 18.182 35.4819C19.176 35.6552 20.199 35.5176 21.112 35.0882C22.0249 34.6586 22.783 33.958 23.2832 33.0818C23.7833 32.2055 24.001 31.1964 23.9066 30.1919L23.932 30.2159C23.861 29.3762 23.9742 28.531 24.2637 27.7394C24.5532 26.9479 25.012 26.2291 25.6078 25.6331C26.2038 25.0372 26.9226 24.5784 27.7141 24.2891C28.5057 23.9996 29.3508 23.8863 30.1906 23.9572L30.1653 23.9332C30.9858 24.007 31.8118 23.8724 32.5666 23.542C33.3213 23.2116 33.9805 22.696 34.4829 22.0431C34.9853 21.3902 35.3149 20.6208 35.4408 19.8067C35.5668 18.9924 35.4852 18.1596 35.2036 17.3852C34.922 16.611 34.4494 15.9203 33.8298 15.3772C33.2102 14.8342 32.4636 14.4563 31.659 14.2787C30.8545 14.1011 30.0181 14.1294 29.2274 14.361C28.4368 14.5927 27.7174 15.0202 27.136 15.6039H27.132Z" fill="#252525"/>
<path d="M17.2961 22.6237L17.2708 22.5997C17.9845 22.6716 18.7053 22.584 19.3812 22.3432C20.0569 22.1024 20.6708 21.7145 21.1782 21.2074C21.6856 20.7004 22.0741 20.0868 22.3153 19.4112C22.5566 18.7356 22.6448 18.0149 22.5734 17.301L22.5988 17.325C22.5278 16.4852 22.6412 15.6401 22.9305 14.8485C23.22 14.057 23.6788 13.3382 24.2746 12.7422C24.8706 12.1464 25.5894 11.6876 26.3809 11.3982C27.1725 11.1087 28.0176 10.9955 28.8574 11.0664L28.8321 11.0424C29.8368 11.1368 30.846 10.9189 31.7222 10.4185C32.5986 9.91816 33.2992 9.15967 33.7285 8.24651C34.1578 7.33336 34.295 6.30999 34.1214 5.31598C33.9478 4.32196 33.4718 3.40572 32.7582 2.6922C32.0448 1.9787 31.1285 1.50264 30.1345 1.32902C29.1405 1.15538 28.1172 1.29259 27.204 1.72195C26.2908 2.1513 25.5324 2.8519 25.032 3.72818C24.5316 4.60444 24.3137 5.61374 24.4081 6.61838L24.3841 6.59304C24.4552 7.4329 24.3421 8.27815 24.0528 9.06978C23.7635 9.8614 23.3046 10.5803 22.7088 11.1764C22.1128 11.7722 21.3939 12.231 20.6022 12.5204C19.8105 12.8097 18.9653 12.9228 18.1254 12.8517L18.1494 12.877C17.4357 12.8052 16.7148 12.8928 16.039 13.1336C15.3633 13.3742 14.7494 13.7622 14.242 14.2693C13.7345 14.7764 13.3461 15.39 13.1048 16.0656C12.8636 16.7412 12.7754 17.4618 12.8468 18.1757L12.8228 18.1517C12.8934 18.9914 12.78 19.8365 12.4905 20.628C12.2009 21.4193 11.7422 22.1381 11.1464 22.734C10.5505 23.3298 9.83174 23.7885 9.04033 24.0781C8.24891 24.3676 7.40386 24.481 6.56412 24.4104L6.58812 24.4344C5.58348 24.34 4.57418 24.5578 3.6979 25.0582C2.82163 25.5586 2.12103 26.317 1.69169 27.2302C1.26233 28.1434 1.1251 29.1668 1.29874 30.1608C1.47238 31.1548 1.94843 32.071 2.66194 32.7845C3.37546 33.4981 4.2917 33.9741 5.28572 34.1477C6.27973 34.3213 7.3031 34.1841 8.21626 33.7548C9.12941 33.3254 9.8879 32.6249 10.3882 31.7486C10.8886 30.8722 11.1065 29.863 11.0121 28.8584L11.0374 28.8824C10.9665 28.0425 11.0798 27.1974 11.3693 26.4058C11.6586 25.6144 12.1174 24.8956 12.7133 24.2996C13.3093 23.7037 14.0281 23.2449 14.8196 22.9556C15.6112 22.6661 16.4562 22.5528 17.2961 22.6237Z" fill="#252525"/>
<path d="M8.35987 19.948C8.86523 19.4397 9.25213 18.8261 9.49299 18.151C9.73384 17.476 9.82269 16.756 9.7532 16.0426L9.77852 16.0666C9.70759 15.2266 9.82087 14.3812 10.1105 13.5894C10.4001 12.7977 10.8591 12.0788 11.4553 11.4828C12.0516 10.8868 12.7707 10.4281 13.5625 10.1389C14.3544 9.84959 15.1999 9.73666 16.0399 9.80796L16.0145 9.78396C17.0188 9.87805 18.0277 9.66007 18.9036 9.15975C19.7795 8.65944 20.4796 7.90113 20.9088 6.98827C21.3379 6.07539 21.4749 5.05239 21.3013 4.05875C21.1277 3.06511 20.6517 2.14921 19.9385 1.43596C19.2253 0.722707 18.3093 0.246814 17.3157 0.0731873C16.3221 -0.100453 15.2991 0.0366406 14.3863 0.465734C13.4733 0.894827 12.7151 1.59505 12.2148 2.47092C11.7144 3.34679 11.4964 4.35567 11.5905 5.35996L11.5665 5.33596C11.6375 6.17576 11.5241 7.02092 11.2347 7.81244C10.9452 8.60396 10.4866 9.32277 9.89061 9.91872C9.29468 10.5147 8.57585 10.9734 7.78433 11.2628C6.99281 11.5522 6.14767 11.6656 5.30787 11.5946L5.33187 11.6186C4.51129 11.545 3.68541 11.6798 2.93077 12.0104C2.17613 12.3409 1.51713 12.8566 1.01485 13.5097C0.512572 14.1626 0.183265 14.932 0.0574252 15.7461C-0.0684015 16.5604 0.0133185 17.3932 0.295012 18.1673C0.576705 18.9416 1.04928 19.6321 1.66892 20.175C2.28856 20.7181 3.03523 21.0958 3.83973 21.2734C4.64423 21.4509 5.48053 21.4225 6.27116 21.1909C7.06177 20.9592 7.78111 20.5317 8.36252 19.948H8.35987Z" fill="#252525"/>
<path d="M49.6626 6.64941H53.6226V25.9201H49.6626V6.64941Z" fill="#252525"/>
<path d="M55.8654 19.3209C55.86 17.9361 56.2656 16.5806 57.0309 15.4265C57.7962 14.2723 58.8869 13.3713 60.1648 12.8375C61.4426 12.3037 62.8501 12.1611 64.209 12.4279C65.568 12.6947 66.8172 13.3587 67.7984 14.3361C68.7796 15.3133 69.4486 16.5598 69.7209 17.9177C69.9932 19.2755 69.8562 20.6837 69.3276 21.9637C68.7989 23.2435 67.9022 24.3379 66.7512 25.1078C65.6 25.8778 64.2464 26.2889 62.8614 26.2889C61.9422 26.2994 61.0301 26.1265 60.1784 25.7803C59.3266 25.4342 58.5525 24.9218 57.9012 24.2731C57.2497 23.6243 56.7342 22.8522 56.3848 22.0019C56.0352 21.1517 55.8586 20.2402 55.8654 19.3209ZM65.8974 19.3209C65.8809 18.7239 65.6888 18.1451 65.3452 17.6567C65.0014 17.1685 64.5214 16.7922 63.9652 16.5753C63.4088 16.3582 62.8009 16.3099 62.2173 16.4366C61.6337 16.5633 61.1004 16.859 60.684 17.2871C60.2677 17.7151 59.9866 18.2565 59.8764 18.8434C59.766 19.4302 59.8309 20.0366 60.0633 20.5867C60.2957 21.1369 60.685 21.6062 61.1826 21.9362C61.6804 22.2662 62.2644 22.4422 62.8614 22.4422C63.2704 22.4531 63.6772 22.3791 64.0562 22.225C64.4352 22.0709 64.7781 21.8399 65.0633 21.5467C65.3485 21.2534 65.57 20.9042 65.7134 20.5211C65.857 20.1381 65.9197 19.7294 65.8974 19.3209Z" fill="#252525"/>
<path d="M85.64 12.7211V25.2545C85.64 29.6891 82.1813 31.5638 78.6706 31.5638C77.4346 31.6563 76.1969 31.4066 75.0933 30.8422C73.9898 30.2777 73.063 29.4202 72.4146 28.3638L75.7933 26.4105C76.0658 26.9611 76.5001 27.4154 77.0378 27.7126C77.5757 28.0097 78.1914 28.1355 78.8026 28.0731C79.1933 28.1273 79.5912 28.0929 79.9668 27.9725C80.3422 27.8521 80.686 27.6487 80.9724 27.3777C81.2588 27.1065 81.4805 26.7745 81.6213 26.4059C81.7619 26.0375 81.818 25.6422 81.7853 25.2491V24.0425C81.3216 24.6098 80.7314 25.0606 80.062 25.3586C79.3925 25.6566 78.6626 25.7935 77.9306 25.7585C76.189 25.7035 74.5371 24.9731 73.3246 23.7217C72.1121 22.4703 71.4341 20.7962 71.4341 19.0538C71.4341 17.3114 72.1121 15.6373 73.3246 14.3859C74.5371 13.1345 76.189 12.4041 77.9306 12.3491C78.6626 12.3141 79.3925 12.451 80.062 12.749C80.7314 13.047 81.3216 13.4978 81.7853 14.0651V12.7185L85.64 12.7211ZM81.7866 19.0558C81.8133 18.4177 81.6482 17.7861 81.3129 17.2425C80.9775 16.6987 80.4871 16.2679 79.9049 16.0054C79.3226 15.7427 78.6752 15.6605 78.0457 15.769C77.4162 15.8775 76.8337 16.1719 76.3729 16.6145C75.9122 17.0569 75.5945 17.627 75.4605 18.2515C75.3266 18.8761 75.3826 19.5265 75.6216 20.1189C75.8604 20.7113 76.271 21.2187 76.8006 21.5758C77.3302 21.9329 77.9546 22.1233 78.5933 22.1225C79.0094 22.1515 79.4269 22.0931 79.819 21.951C80.2111 21.8089 80.5691 21.5861 80.8699 21.2973C81.1707 21.0083 81.4078 20.6597 81.5657 20.2735C81.7236 19.8875 81.7989 19.4727 81.7866 19.0558Z" fill="#252525"/>
<path d="M87.8825 19.3209C87.877 17.9361 88.2825 16.5806 89.048 15.4265C89.8133 14.2723 90.904 13.3713 92.1818 12.8375C93.4597 12.3037 94.8672 12.1611 96.2261 12.4279C97.585 12.6947 98.8342 13.3587 99.8154 14.3361C100.797 15.3133 101.466 16.5598 101.738 17.9177C102.01 19.2755 101.873 20.6837 101.345 21.9637C100.816 23.2435 99.9193 24.3379 98.7682 25.1078C97.617 25.8778 96.2634 26.2889 94.8785 26.2889C93.9593 26.2994 93.047 26.1265 92.1954 25.7803C91.3437 25.4342 90.5696 24.9218 89.9182 24.2731C89.2668 23.6243 88.7513 22.8522 88.4018 22.0019C88.0522 21.1517 87.8757 20.2402 87.8825 19.3209ZM97.9145 19.3209C97.898 18.7239 97.7058 18.1451 97.3622 17.6567C97.0185 17.1685 96.5385 16.7922 95.9822 16.5753C95.4258 16.3582 94.8178 16.3099 94.2344 16.4366C93.6508 16.5633 93.1174 16.859 92.701 17.2871C92.2848 17.7151 92.0037 18.2565 91.8933 18.8434C91.7829 19.4302 91.848 20.0366 92.0804 20.5867C92.3128 21.1369 92.7021 21.6062 93.1997 21.9362C93.6974 22.2662 94.2813 22.4422 94.8785 22.4422C95.2874 22.4531 95.6942 22.3791 96.0732 22.225C96.4522 22.0709 96.7952 21.8399 97.0804 21.5467C97.3656 21.2534 97.587 20.9042 97.7305 20.5211C97.8741 20.1381 97.9368 19.7294 97.9145 19.3209Z" fill="#252525"/>
<path d="M103.721 9.18362C103.721 8.71369 103.861 8.25431 104.122 7.86359C104.383 7.47286 104.754 7.16831 105.188 6.98849C105.622 6.80865 106.1 6.76159 106.561 6.85327C107.022 6.94495 107.445 7.17125 107.777 7.50354C108.11 7.83582 108.336 8.25918 108.428 8.72009C108.519 9.18098 108.472 9.65871 108.292 10.0929C108.113 10.527 107.808 10.8981 107.417 11.1592C107.027 11.4203 106.567 11.5596 106.097 11.5596C105.469 11.5534 104.868 11.3011 104.424 10.8568C103.98 10.4126 103.727 9.81183 103.721 9.18362ZM104.121 12.721H108.083V25.921H104.116L104.121 12.721Z" fill="#252525"/>
<path d="M125.181 19.3214C125.227 20.1938 125.1 21.0666 124.807 21.8897C124.515 22.7127 124.062 23.4698 123.476 24.1174C122.889 24.7649 122.181 25.2902 121.391 25.663C120.601 26.0357 119.745 26.2486 118.872 26.2894C118.138 26.3294 117.405 26.2057 116.725 25.9271C116.044 25.6485 115.435 25.2221 114.94 24.6787V31.2001H110.98V12.7214H114.94V13.9614C115.435 13.4185 116.045 12.9923 116.725 12.7141C117.405 12.4357 118.138 12.3121 118.872 12.3521C119.745 12.3927 120.601 12.6055 121.391 12.9783C122.181 13.3511 122.89 13.8765 123.477 14.5242C124.063 15.1719 124.515 15.9293 124.808 16.7526C125.101 17.5758 125.227 18.4489 125.181 19.3214ZM121.221 19.3214C121.206 18.7037 121.009 18.1042 120.654 17.5979C120.299 17.0918 119.804 16.7014 119.228 16.4758C118.653 16.2501 118.024 16.199 117.42 16.3291C116.816 16.4591 116.263 16.7645 115.832 17.2069C115.401 17.6494 115.109 18.2091 114.994 18.8165C114.88 19.4237 114.946 20.0511 115.187 20.6206C115.427 21.1901 115.829 21.6759 116.344 22.0177C116.859 22.3593 117.463 22.5415 118.081 22.5414C118.506 22.5603 118.929 22.4893 119.324 22.333C119.719 22.1769 120.076 21.9389 120.373 21.6349C120.669 21.3307 120.898 20.9675 121.044 20.5689C121.191 20.1702 121.251 19.745 121.221 19.3214Z" fill="#252525"/>
<path d="M137.401 21.9595C137.401 24.9955 134.763 26.2889 131.912 26.2889C130.76 26.3931 129.603 26.1497 128.592 25.5895C127.58 25.0295 126.759 24.1789 126.236 23.1475L129.667 21.1942C129.805 21.6709 130.103 22.0857 130.511 22.369C130.919 22.6525 131.412 22.7875 131.907 22.7515C132.856 22.7515 133.332 22.4609 133.332 21.9342C133.332 20.4809 126.837 21.2475 126.837 16.6809C126.837 13.8022 129.267 12.3515 132.012 12.3515C133.044 12.3189 134.065 12.5637 134.97 13.0603C135.876 13.5571 136.632 14.2875 137.159 15.1755L133.78 16.9969C133.632 16.6511 133.385 16.3566 133.071 16.1501C132.756 15.9435 132.388 15.8342 132.012 15.8355C131.325 15.8355 130.903 16.1022 130.903 16.5742C130.908 18.0795 137.401 17.0755 137.401 21.9595Z" fill="#252525"/>
<path d="M151.866 12.7212V25.9212H147.906V24.6799C147.449 25.2276 146.869 25.6592 146.213 25.9392C145.557 26.2192 144.845 26.3396 144.133 26.2905C141.466 26.2905 139.2 24.3905 139.2 20.8239V12.7212H143.16V20.2439C143.126 20.5583 143.162 20.8761 143.265 21.1752C143.366 21.4744 143.533 21.7477 143.752 21.9761C143.97 22.2045 144.236 22.3825 144.53 22.4979C144.824 22.6132 145.14 22.6631 145.456 22.6439C146.908 22.6439 147.91 21.7999 147.91 19.9252V12.7252L151.866 12.7212Z" fill="#252525"/>
<path d="M174.573 17.8159V25.9199H170.613V18.1585C170.613 16.8385 169.98 15.9945 168.713 15.9945C167.393 15.9945 166.653 16.9185 166.653 18.4759V25.9199H162.694V18.1585C162.694 16.8385 162.061 15.9945 160.793 15.9945C159.473 15.9945 158.734 16.9185 158.734 18.4759V25.9199H154.774V12.7199H158.734V13.9332C159.145 13.3949 159.684 12.968 160.301 12.6916C160.92 12.4151 161.597 12.2979 162.272 12.3505C162.949 12.3173 163.624 12.4604 164.23 12.7656C164.836 13.0707 165.352 13.5277 165.729 14.0919C166.168 13.5016 166.749 13.0323 167.418 12.7277C168.088 12.4232 168.824 12.2935 169.557 12.3505C172.588 12.3519 174.573 14.5159 174.573 17.8159Z" fill="#252525"/>
<path d="M177.923 12.64C179.545 12.64 180.861 11.3243 180.861 9.70136C180.861 8.07838 179.545 6.7627 177.923 6.7627C176.3 6.7627 174.984 8.07838 174.984 9.70136C174.984 11.3243 176.3 12.64 177.923 12.64Z" fill="#252525"/>
</svg>
