<svg width="152" height="35" viewBox="0 0 152 35" fill="none" xmlns="http://www.w3.org/2000/svg">
<path d="M0 34.4749H34.2V0.274902H0V34.4749ZM27.6174 14.0842H20.3907V6.85757H27.6174V14.0842ZM6.58133 6.85757H13.812V20.6656H27.6174V27.8922H6.58133V6.85757ZM56.4707 0.274902C53.0886 0.274902 49.7824 1.27781 46.9704 3.15678C44.1583 5.03576 41.9666 7.70641 40.6723 10.831C39.378 13.9557 39.0395 17.3938 39.6992 20.7109C40.3591 24.028 41.9876 27.0749 44.3791 29.4664C46.7706 31.858 49.8175 33.4865 53.1346 34.1464C56.4518 34.8061 59.8899 34.4676 63.0146 33.1733C66.1392 31.879 68.8098 29.6873 70.6888 26.8752C72.5678 24.063 73.5707 20.7569 73.5707 17.3749C73.5654 12.8413 71.762 8.49496 68.5563 5.28924C65.3506 2.0835 61.0043 0.280196 56.4707 0.274902ZM56.4707 27.8922C54.3906 27.8922 52.3571 27.2754 50.6275 26.1197C48.898 24.9641 47.5499 23.3216 46.7539 21.3997C45.9579 19.478 45.7496 17.3633 46.1554 15.323C46.5612 13.2829 47.563 11.4089 49.0338 9.93802C50.5047 8.46716 52.3787 7.46548 54.4188 7.05966C56.459 6.65385 58.5736 6.86213 60.4955 7.65816C62.4172 8.45418 64.0599 9.80222 65.2155 11.5318C66.3712 13.2613 66.988 15.2948 66.988 17.3749C66.9838 20.163 65.8743 22.8357 63.9028 24.8072C61.9314 26.7786 59.2587 27.888 56.4707 27.8922ZM134.763 0.274902C131.38 0.274649 128.074 1.27732 125.262 3.15613C122.45 5.03494 120.258 7.7055 118.963 10.8301C117.669 13.9546 117.33 17.393 117.99 20.7101C118.649 24.0273 120.278 27.0744 122.669 29.466C125.061 31.8576 128.108 33.4864 131.425 34.1462C134.741 34.8061 138.18 34.4676 141.305 33.1734C144.429 31.8792 147.1 29.6874 148.979 26.8753C150.859 24.0632 151.861 20.757 151.861 17.3749C151.856 12.8416 150.053 8.49538 146.848 5.2897C143.643 2.08401 139.296 0.280556 134.763 0.274902ZM134.763 27.8922C132.683 27.8925 130.649 27.2758 128.919 26.1204C127.189 24.9649 125.841 23.3224 125.045 21.4006C124.249 19.4789 124.04 17.3641 124.446 15.3238C124.852 13.2837 125.853 11.4096 127.324 9.9385C128.795 8.46749 130.669 7.46568 132.709 7.05976C134.749 6.65384 136.864 6.86204 138.785 7.65804C140.708 8.45402 142.351 9.80205 143.507 11.5317C144.661 13.2613 145.279 15.2948 145.279 17.3749C145.275 20.1628 144.165 22.8352 142.193 24.8066C140.223 26.7781 137.551 27.8877 134.763 27.8922ZM95.616 0.274902C92.2339 0.274902 88.9278 1.27781 86.1158 3.15678C83.3036 5.03576 81.1119 7.70641 79.8176 10.831C78.5234 13.9557 78.1848 17.3938 78.8446 20.7109C79.5044 24.028 81.133 27.0749 83.5244 29.4664C85.9159 31.858 88.9628 33.4865 92.2799 34.1464C95.597 34.8061 99.0352 34.4676 102.16 33.1733C105.285 31.879 107.955 29.6873 109.834 26.8752C111.713 24.063 112.716 20.7569 112.716 17.3749C112.711 12.8413 110.907 8.49496 107.702 5.28924C104.496 2.0835 100.15 0.280196 95.616 0.274902ZM95.616 27.8922C93.6779 27.8932 91.7774 27.3586 90.1239 26.3476C88.4706 25.3365 87.1286 23.8884 86.2463 22.1628C85.3642 20.4372 84.9758 18.5013 85.1243 16.569C85.2728 14.6366 85.9523 12.7829 87.0879 11.2124C88.2235 9.64192 89.771 8.41572 91.5594 7.66918C93.3479 6.92264 95.3079 6.6848 97.223 6.98189C99.1382 7.279 100.934 8.09948 102.412 9.3528C103.89 10.6061 104.994 12.2436 105.6 14.0842H95.616V20.6656H105.6C104.905 22.766 103.567 24.5945 101.775 25.8916C99.9832 27.1888 97.8283 27.8886 95.616 27.8922Z" fill="#252525"/>
</svg>
