<svg width="151" height="36" viewBox="0 0 151 36" fill="none" xmlns="http://www.w3.org/2000/svg">
<path d="M42.6416 11.1736H46.4449V26.5762H42.6416V11.1736ZM47.9614 20.7825C47.9614 16.9674 50.3311 14.6807 53.8855 14.6807C57.4399 14.6807 59.8096 16.9674 59.8096 20.7825C59.8096 24.5976 57.5229 26.908 53.8855 26.908C50.2481 26.908 47.9614 24.6805 47.9614 20.7825ZM56.0419 20.7825C56.0419 18.6853 55.2243 17.4531 53.921 17.4531C52.6177 17.4531 51.8121 18.6379 51.8121 20.7825C51.8121 22.927 52.6177 24.0999 53.921 24.0999C55.2243 24.0999 56.0656 22.927 56.0656 20.7943L56.0419 20.7825ZM61.3261 27.37H64.9991C65.1662 27.7654 65.4583 28.0954 65.8306 28.3092C66.2028 28.5232 66.6348 28.6095 67.0606 28.5548C68.518 28.5548 69.2762 27.7729 69.2762 26.6118V24.4791H69.2881C68.9742 25.1432 68.4667 25.6966 67.8323 26.0667C67.1978 26.4369 66.4662 26.6062 65.7336 26.5525C62.9493 26.5525 61.101 24.4317 61.101 20.7825C61.101 17.1332 62.8664 14.8584 65.8403 14.8584C66.5916 14.8182 67.3369 15.0119 67.9734 15.413C68.61 15.8141 69.1066 16.4027 69.3947 17.0977H69.2881V14.9532H73.0558V26.4933C73.0558 29.2776 70.5914 31.0193 66.9659 31.0193C63.6721 31.0074 61.5631 29.5027 61.3498 27.3819L61.3261 27.37ZM69.2881 20.7825C69.2881 18.9223 68.435 17.7493 67.0843 17.7493C65.7336 17.7493 64.9043 18.9342 64.9043 20.7825C64.9043 22.6308 65.7218 23.7208 67.0843 23.7208C68.4469 23.7208 69.2881 22.7137 69.2881 20.7825ZM74.5605 20.7825C74.5605 16.9674 76.9301 14.6807 80.4846 14.6807C84.039 14.6807 86.4087 16.9674 86.4087 20.7825C86.4087 24.5976 84.1101 26.908 80.4846 26.908C76.8591 26.908 74.5842 24.6805 74.5842 20.7825H74.5605ZM82.6409 20.7825C82.6409 18.6853 81.8116 17.4531 80.5201 17.4531C79.2287 17.4531 78.4112 18.6379 78.4112 20.7825C78.4112 22.927 79.2168 24.0999 80.5201 24.0999C81.8234 24.0999 82.6646 22.927 82.6646 20.7943L82.6409 20.7825ZM87.9489 12.1452C87.9323 11.7577 88.0321 11.3742 88.2353 11.044C88.4385 10.7137 88.7359 10.4518 89.0892 10.292C89.4425 10.132 89.8355 10.0816 90.2177 10.147C90.5999 10.2123 90.9538 10.3905 91.2339 10.6586C91.514 10.9268 91.7075 11.2725 91.7895 11.6516C91.8714 12.0306 91.8381 12.4255 91.6938 12.7853C91.5495 13.1453 91.3008 13.4538 90.9797 13.6712C90.6586 13.8886 90.2798 14.005 89.892 14.0053C89.6443 14.0116 89.3976 13.9686 89.1666 13.8789C88.9355 13.7891 88.7245 13.6543 88.5459 13.4823C88.3674 13.3104 88.2248 13.1047 88.1264 12.8771C88.028 12.6497 87.9757 12.4049 87.9726 12.157L87.9489 12.1452ZM87.9489 14.9413H91.7996V26.6236H88.0082L87.9489 14.9413ZM105.65 20.7825C105.65 24.5857 103.944 26.7895 101.041 26.7895C100.298 26.8353 99.5587 26.6519 98.923 26.2642C98.2874 25.8765 97.7861 25.303 97.4867 24.6213H97.4156V30.3795H93.6123V14.9769H97.3919V17.0621H97.463C97.7521 16.367 98.2485 15.7778 98.8845 15.375C99.5206 14.9721 100.265 14.7752 101.017 14.811C104.003 14.7873 105.721 16.9792 105.721 20.7943L105.65 20.7825ZM101.776 20.7825C101.776 18.9342 100.911 17.7375 99.572 17.7375C98.2331 17.7375 97.3919 18.9223 97.38 20.7825C97.3682 22.6426 98.2331 23.8156 99.572 23.8156C100.911 23.8156 101.847 22.7137 101.847 20.7943L101.776 20.7825ZM112.143 14.6688C115.33 14.6688 117.309 16.1735 117.332 18.5906H113.861C113.861 17.7493 113.162 17.228 112.119 17.228C111.077 17.228 110.579 17.6309 110.579 18.2351C110.579 18.8394 111.017 19.0289 111.894 19.2067L114.335 19.7043C116.704 20.2019 117.652 21.1498 117.652 22.9151C117.652 25.2848 115.46 26.8961 112.202 26.8961C108.944 26.8961 106.823 25.3322 106.669 22.9507H110.354C110.46 23.8156 111.148 24.3251 112.261 24.3251C113.375 24.3251 113.896 23.9696 113.896 23.3417C113.896 22.7137 113.541 22.6071 112.629 22.4175L110.425 21.9554C108.138 21.4697 106.942 20.273 106.942 18.4839C107.013 16.1617 109.003 14.6807 112.214 14.6807L112.143 14.6688ZM130.389 26.6118H126.704V24.4198H126.633C126.427 25.151 125.978 25.79 125.359 26.2314C124.741 26.673 123.991 26.8907 123.233 26.8487C122.66 26.8673 122.089 26.7647 121.56 26.5474C121.03 26.3302 120.551 26.0034 120.157 25.5883C119.761 25.1732 119.459 24.6792 119.268 24.1389C119.078 23.5986 119.003 23.024 119.05 22.4531V14.9532H122.854V21.6355C122.854 23.0099 123.576 23.7563 124.761 23.7563C125.04 23.7542 125.313 23.6925 125.566 23.5754C125.818 23.4582 126.042 23.2883 126.222 23.0772C126.403 22.8661 126.537 22.6186 126.614 22.3515C126.69 22.0843 126.709 21.8039 126.669 21.5289V14.9532H130.46L130.389 26.6118ZM132.225 14.9413H135.922V17.1925H136.005C136.209 16.4713 136.647 15.8382 137.249 15.3923C137.852 14.9464 138.586 14.7128 139.334 14.7281C140.087 14.6627 140.837 14.8802 141.436 15.3381C142.037 15.7961 142.444 16.4616 142.581 17.2043H142.747C142.984 16.4575 143.46 15.8099 144.103 15.3622C144.745 14.9143 145.519 14.6914 146.301 14.7281C146.821 14.7083 147.34 14.7986 147.822 14.993C148.306 15.1873 148.742 15.4815 149.103 15.8562C149.465 16.2309 149.742 16.6777 149.918 17.1672C150.096 17.6568 150.167 18.1781 150.128 18.6972V26.6236H146.301V19.6687C146.301 18.4839 145.744 17.8204 144.666 17.8204C144.427 17.8165 144.19 17.8644 143.971 17.9606C143.751 18.0569 143.557 18.1994 143.398 18.3784C143.239 18.5574 143.121 18.7684 143.051 18.9973C142.982 19.2262 142.963 19.4673 142.995 19.7043V26.6236H139.37V19.6332C139.37 18.4484 138.789 17.8204 137.747 17.8204C137.505 17.8185 137.266 17.8683 137.045 17.9664C136.824 18.0646 136.627 18.2088 136.466 18.3895C136.306 18.5702 136.186 18.7831 136.115 19.0139C136.043 19.2448 136.022 19.4883 136.052 19.728V26.6236H132.249L132.225 14.9413Z" fill="#252525"/>
<path d="M35.1179 12.1811C35.118 9.82301 34.4059 7.5198 33.0749 5.57322C31.7439 3.62664 29.8559 2.12744 27.6584 1.272C25.4609 0.416551 23.0562 0.244753 20.7595 0.779093C18.4626 1.31343 16.3808 2.529 14.7865 4.26658H0V35.4746H31.2198V20.8895C32.4452 19.7936 33.4257 18.4515 34.0974 16.951C34.7691 15.4504 35.1168 13.8252 35.1179 12.1811ZM29.1109 12.1811C29.1132 13.3111 28.7803 14.4164 28.1543 15.3572C27.5281 16.2978 26.6371 17.0317 25.5938 17.4657C24.5504 17.8998 23.4018 18.0146 22.2932 17.7955C21.1847 17.5766 20.166 17.0336 19.3661 16.2353C18.5663 15.4371 18.0212 14.4196 17.7999 13.3115C17.5786 12.2034 17.691 11.0545 18.1229 10.0103C18.5548 8.9661 19.2867 8.0735 20.2261 7.44547C21.1655 6.81743 22.2701 6.4822 23.4001 6.48219C24.9126 6.48219 26.3634 7.08224 27.434 8.15066C28.5047 9.21907 29.1078 10.6686 29.1109 12.1811ZM25.2128 29.4676H6.00701V10.2736H11.86C11.7469 10.9033 11.6875 11.5415 11.6823 12.1811C11.6854 15.288 12.921 18.2666 15.1179 20.4635C17.3146 22.6602 20.2932 23.8959 23.4001 23.899C24.0075 23.8958 24.6137 23.8442 25.2128 23.7449V29.4676Z" fill="#252525"/>
</svg>
