<svg width="261" height="71" viewBox="0 0 261 71" fill="none" xmlns="http://www.w3.org/2000/svg">
<rect x="0.078125" y="0.411865" width="260.861" height="70" rx="35" fill="white"/>
<path d="M67.2101 33.2384C66.7048 33.7468 66.3178 34.3604 66.0768 35.0353C65.8357 35.7104 65.7465 36.4303 65.8154 37.1437L65.7914 37.1197C65.8624 37.9596 65.749 38.8047 65.4596 39.5963C65.1701 40.3877 64.7114 41.1065 64.1156 41.7025C63.5196 42.2984 62.8008 42.7572 62.0092 43.0465C61.2177 43.336 60.3725 43.4493 59.5328 43.3784L59.5568 43.4024C58.5522 43.3089 57.5433 43.5275 56.6674 44.0284C55.7917 44.5293 55.0917 45.2881 54.663 46.2015C54.2344 47.1148 54.0977 48.138 54.2718 49.1319C54.4461 50.1256 54.9225 51.0415 55.6362 51.7545C56.35 52.4676 57.2662 52.9432 58.2601 53.1164C59.2541 53.2897 60.2772 53.1521 61.1901 52.7227C62.103 52.2931 62.8612 51.5925 63.3613 50.7163C63.8614 49.84 64.0792 48.8309 63.9848 47.8264L64.0101 47.8504C63.9392 47.0107 64.0524 46.1655 64.3418 45.3739C64.6313 44.5824 65.0901 43.8636 65.686 43.2676C66.282 42.6717 67.0008 42.2129 67.7922 41.9236C68.5838 41.6341 69.4289 41.5208 70.2688 41.5917L70.2434 41.5677C71.064 41.6415 71.89 41.5069 72.6448 41.1765C73.3994 40.8461 74.0586 40.3305 74.561 39.6776C75.0634 39.0247 75.393 38.2553 75.5189 37.4412C75.6449 36.6269 75.5633 35.7941 75.2817 35.0197C75.0001 34.2455 74.5276 33.5548 73.908 33.0117C73.2884 32.4687 72.5417 32.0908 71.7372 31.9132C70.9326 31.7356 70.0962 31.7639 69.3056 31.9955C68.5149 32.2272 67.7956 32.6547 67.2141 33.2384H67.2101Z" fill="#252525"/>
<path d="M57.374 40.2585L57.3487 40.2345C58.0624 40.3063 58.7832 40.2187 59.4591 39.9779C60.1348 39.7371 60.7487 39.3493 61.2561 38.8422C61.7635 38.3351 62.152 37.7215 62.3932 37.0459C62.6345 36.3703 62.7227 35.6497 62.6513 34.9358L62.6767 34.9598C62.6057 34.1199 62.7191 33.2749 63.0084 32.4833C63.2979 31.6918 63.7567 30.973 64.3525 30.377C64.9485 29.7811 65.6673 29.3223 66.4588 29.033C67.2504 28.7435 68.0955 28.6302 68.9353 28.7011L68.91 28.6771C69.9147 28.7715 70.9239 28.5536 71.8001 28.0533C72.6765 27.5529 73.3771 26.7944 73.8064 25.8813C74.2357 24.9681 74.3729 23.9448 74.1993 22.9507C74.0257 21.9567 73.5497 21.0405 72.8361 20.327C72.1227 19.6135 71.2064 19.1374 70.2124 18.9638C69.2184 18.7901 68.1951 18.9274 67.2819 19.3567C66.3687 19.7861 65.6103 20.4867 65.1099 21.3629C64.6095 22.2392 64.3916 23.2485 64.486 24.2531L64.462 24.2278C64.5331 25.0677 64.42 25.9129 64.1307 26.7045C63.8413 27.4962 63.3825 28.2151 62.7867 28.8111C62.1907 29.407 61.4717 29.8658 60.6801 30.1551C59.8884 30.4445 59.0432 30.5575 58.2033 30.4865L58.2273 30.5118C57.5136 30.4399 56.7927 30.5275 56.1169 30.7683C55.4412 31.009 54.8273 31.397 54.3199 31.9041C53.8124 32.4111 53.424 33.0247 53.1827 33.7003C52.9415 34.3759 52.8533 35.0966 52.9247 35.8105L52.9007 35.7865C52.9713 36.6262 52.8579 37.4713 52.5684 38.2627C52.2788 39.0541 51.8201 39.7729 51.2243 40.3687C50.6283 40.9646 49.9096 41.4233 49.1182 41.7129C48.3268 42.0023 47.4817 42.1158 46.642 42.0451L46.666 42.0691C45.6614 41.9747 44.6521 42.1926 43.7758 42.693C42.8995 43.1934 42.1989 43.9518 41.7696 44.865C41.3402 45.7782 41.203 46.8015 41.3766 47.7955C41.5503 48.7895 42.0263 49.7058 42.7398 50.4193C43.4533 51.1329 44.3696 51.6089 45.3636 51.7825C46.3576 51.9561 47.381 51.8189 48.2941 51.3895C49.2073 50.9602 49.9658 50.2597 50.4661 49.3834C50.9665 48.507 51.1844 47.4978 51.09 46.4931L51.1153 46.5171C51.0444 45.6773 51.1577 44.8322 51.4472 44.0406C51.7365 43.2491 52.1953 42.5303 52.7912 41.9343C53.3872 41.3385 54.106 40.8797 54.8975 40.5903C55.6891 40.3009 56.5341 40.1875 57.374 40.2585Z" fill="#252525"/>
<path d="M48.438 37.5825C48.9434 37.0742 49.3303 36.4606 49.5711 35.7855C49.812 35.1105 49.9008 34.3905 49.8313 33.6771L49.8566 33.7011C49.7857 32.8611 49.899 32.0157 50.1886 31.2239C50.4782 30.4322 50.9372 29.7133 51.5335 29.1173C52.1297 28.5213 52.8488 28.0627 53.6407 27.7734C54.4325 27.4841 55.278 27.3712 56.118 27.4425L56.0927 27.4185C57.0969 27.5126 58.1059 27.2946 58.9817 26.7943C59.8576 26.294 60.5577 25.5357 60.9869 24.6228C61.416 23.7099 61.5531 22.6869 61.3795 21.6933C61.2059 20.6996 60.7299 19.7837 60.0167 19.0705C59.3035 18.3572 58.3875 17.8813 57.3939 17.7077C56.4003 17.5341 55.3772 17.6712 54.4644 18.1003C53.5515 18.5293 52.7932 19.2296 52.2929 20.1054C51.7925 20.9813 51.5745 21.9902 51.6687 22.9945L51.6447 22.9705C51.7156 23.8103 51.6023 24.6554 51.3128 25.447C51.0233 26.2385 50.5647 26.9573 49.9687 27.5532C49.3728 28.1492 48.654 28.6079 47.8625 28.8973C47.0709 29.1867 46.2258 29.3001 45.386 29.2291L45.41 29.2531C44.5894 29.1795 43.7635 29.3143 43.0089 29.6449C42.2543 29.9754 41.5953 30.4911 41.093 31.1442C40.5907 31.7971 40.2614 32.5665 40.1356 33.3806C40.0097 34.1949 40.0914 35.0277 40.3731 35.8018C40.6548 36.5761 41.1274 37.2666 41.747 37.8095C42.3667 38.3526 43.1134 38.7303 43.9179 38.9079C44.7224 39.0854 45.5587 39.057 46.3493 38.8254C47.1399 38.5937 47.8592 38.1662 48.4406 37.5825H48.438Z" fill="#252525"/>
<path d="M89.7407 24.2837H93.7007V43.5544H89.7407V24.2837Z" fill="#252525"/>
<path d="M95.9433 36.9556C95.9378 35.5708 96.3434 34.2154 97.1088 33.0612C97.8741 31.9071 98.9648 31.006 100.243 30.4723C101.521 29.9384 102.928 29.7959 104.287 30.0627C105.646 30.3295 106.895 30.9935 107.876 31.9708C108.857 32.948 109.527 34.1946 109.799 35.5524C110.071 36.9103 109.934 38.3184 109.405 39.5984C108.877 40.8783 107.98 41.9727 106.829 42.7426C105.678 43.5126 104.324 43.9236 102.939 43.9236C102.02 43.9342 101.108 43.7612 100.256 43.4151C99.4045 43.069 98.6304 42.5566 97.979 41.9079C97.3276 41.2591 96.8121 40.487 96.4626 39.6367C96.113 38.7864 95.9365 37.875 95.9433 36.9556ZM105.975 36.9556C105.959 36.3587 105.767 35.7799 105.423 35.2915C105.079 34.8032 104.599 34.427 104.043 34.21C103.487 33.993 102.879 33.9447 102.295 34.0714C101.712 34.198 101.178 34.4938 100.762 34.9219C100.346 35.3499 100.065 35.8912 99.9542 36.4782C99.8438 37.065 99.9088 37.6714 100.141 38.2215C100.374 38.7716 100.763 39.241 101.261 39.571C101.758 39.901 102.342 40.077 102.939 40.077C103.348 40.0879 103.755 40.0139 104.134 39.8598C104.513 39.7056 104.856 39.4747 105.141 39.1815C105.426 38.8882 105.648 38.539 105.791 38.1559C105.935 37.7728 105.998 37.3642 105.975 36.9556Z" fill="#252525"/>
<path d="M125.718 30.3556V42.889C125.718 47.3236 122.259 49.1983 118.749 49.1983C117.513 49.2908 116.275 49.0411 115.171 48.4767C114.068 47.9122 113.141 47.0547 112.493 45.9983L115.871 44.045C116.144 44.5956 116.578 45.0499 117.116 45.3471C117.654 45.6442 118.27 45.77 118.881 45.7076C119.271 45.7618 119.669 45.7274 120.045 45.607C120.42 45.4866 120.764 45.2832 121.05 45.0122C121.337 44.741 121.559 44.409 121.699 44.0404C121.84 43.672 121.896 43.2767 121.863 42.8836V41.677C121.4 42.2443 120.81 42.6951 120.14 42.9931C119.471 43.2911 118.741 43.428 118.009 43.393C116.267 43.338 114.615 42.6076 113.403 41.3562C112.19 40.1048 111.512 38.4307 111.512 36.6883C111.512 34.9459 112.19 33.2718 113.403 32.0204C114.615 30.769 116.267 30.0386 118.009 29.9836C118.741 29.9486 119.471 30.0855 120.14 30.3835C120.81 30.6815 121.4 31.1323 121.863 31.6996V30.353L125.718 30.3556ZM121.865 36.6903C121.891 36.0522 121.726 35.4206 121.391 34.877C121.056 34.3332 120.565 33.9024 119.983 33.6399C119.401 33.3772 118.753 33.295 118.124 33.4035C117.494 33.512 116.912 33.8064 116.451 34.249C115.99 34.6914 115.673 35.2615 115.539 35.886C115.405 36.5106 115.461 37.161 115.7 37.7534C115.938 38.3458 116.349 38.8532 116.879 39.2103C117.408 39.5674 118.033 39.7578 118.671 39.757C119.088 39.786 119.505 39.7276 119.897 39.5855C120.289 39.4434 120.647 39.2206 120.948 38.9318C121.249 38.6428 121.486 38.2942 121.644 37.908C121.802 37.522 121.877 37.1072 121.865 36.6903Z" fill="#252525"/>
<path d="M127.961 36.9556C127.955 35.5708 128.361 34.2154 129.126 33.0612C129.891 31.9071 130.982 31.006 132.26 30.4723C133.538 29.9384 134.945 29.7959 136.304 30.0627C137.663 30.3295 138.912 30.9935 139.894 31.9708C140.875 32.948 141.544 34.1946 141.816 35.5524C142.088 36.9103 141.951 38.3184 141.423 39.5984C140.894 40.8783 139.997 41.9727 138.846 42.7426C137.695 43.5126 136.342 43.9236 134.957 43.9236C134.037 43.9342 133.125 43.7612 132.274 43.4151C131.422 43.069 130.648 42.5566 129.996 41.9079C129.345 41.2591 128.829 40.487 128.48 39.6367C128.13 38.7864 127.954 37.875 127.961 36.9556ZM137.993 36.9556C137.976 36.3587 137.784 35.7799 137.44 35.2915C137.097 34.8032 136.617 34.427 136.06 34.21C135.504 33.993 134.896 33.9447 134.313 34.0714C133.729 34.198 133.196 34.4938 132.779 34.9219C132.363 35.3499 132.082 35.8912 131.971 36.4782C131.861 37.065 131.926 37.6714 132.159 38.2215C132.391 38.7716 132.78 39.241 133.278 39.571C133.776 39.901 134.359 40.077 134.957 40.077C135.366 40.0879 135.772 40.0139 136.151 39.8598C136.53 39.7056 136.873 39.4747 137.159 39.1815C137.444 38.8882 137.665 38.539 137.809 38.1559C137.952 37.7728 138.015 37.3642 137.993 36.9556Z" fill="#252525"/>
<path d="M143.799 26.8184C143.799 26.3485 143.939 25.8891 144.2 25.4984C144.461 25.1076 144.832 24.8031 145.266 24.6233C145.7 24.4434 146.178 24.3964 146.639 24.488C147.1 24.5797 147.523 24.806 147.855 25.1383C148.188 25.4706 148.414 25.8939 148.506 26.3549C148.597 26.8157 148.55 27.2935 148.371 27.7276C148.191 28.1618 147.886 28.5329 147.495 28.794C147.105 29.0551 146.645 29.1944 146.175 29.1944C145.547 29.1881 144.946 28.9359 144.502 28.4916C144.058 28.0473 143.806 27.4466 143.799 26.8184ZM144.199 30.3557H148.161V43.5557H144.194L144.199 30.3557Z" fill="#252525"/>
<path d="M165.259 36.9557C165.305 37.8281 165.178 38.7009 164.885 39.524C164.593 40.347 164.14 41.1041 163.554 41.7517C162.967 42.3992 162.259 42.9245 161.469 43.2973C160.679 43.67 159.823 43.8829 158.95 43.9237C158.216 43.9637 157.483 43.84 156.803 43.5614C156.123 43.2828 155.513 42.8564 155.018 42.313V48.8344H151.058V30.3557H155.018V31.5957C155.513 31.0528 156.123 30.6266 156.803 30.3484C157.483 30.07 158.216 29.9464 158.95 29.9864C159.823 30.027 160.679 30.2398 161.469 30.6126C162.26 30.9854 162.968 31.5108 163.555 32.1585C164.141 32.8062 164.594 33.5636 164.886 34.3869C165.179 35.2101 165.306 36.0832 165.259 36.9557ZM161.299 36.9557C161.284 36.338 161.087 35.7385 160.732 35.2322C160.378 34.7261 159.882 34.3357 159.307 34.1101C158.731 33.8844 158.102 33.8333 157.498 33.9634C156.894 34.0934 156.342 34.3988 155.91 34.8412C155.479 35.2837 155.187 35.8434 155.073 36.4508C154.958 37.058 155.025 37.6854 155.265 38.2549C155.505 38.8244 155.907 39.3102 156.422 39.652C156.937 39.9936 157.541 40.1758 158.159 40.1757C158.584 40.1946 159.007 40.1236 159.402 39.9673C159.797 39.8112 160.154 39.5732 160.451 39.2692C160.747 38.965 160.976 38.6018 161.122 38.2032C161.269 37.8045 161.329 37.3793 161.299 36.9557Z" fill="#252525"/>
<path d="M177.479 39.5943C177.479 42.6303 174.841 43.9236 171.99 43.9236C170.838 44.0279 169.682 43.7844 168.67 43.2243C167.658 42.6643 166.837 41.8136 166.314 40.7823L169.745 38.829C169.883 39.3056 170.182 39.7204 170.589 40.0038C170.997 40.2872 171.49 40.4223 171.985 40.3863C172.934 40.3863 173.41 40.0956 173.41 39.569C173.41 38.1156 166.915 38.8823 166.915 34.3156C166.915 31.437 169.345 29.9863 172.09 29.9863C173.122 29.9536 174.143 30.1984 175.049 30.6951C175.954 31.1919 176.71 31.9223 177.237 32.8103L173.858 34.6316C173.71 34.2859 173.463 33.9914 173.149 33.7848C172.834 33.5783 172.466 33.469 172.09 33.4703C171.403 33.4703 170.981 33.737 170.981 34.209C170.986 35.7143 177.479 34.7103 177.479 39.5943Z" fill="#252525"/>
<path d="M191.945 30.3557V43.5557H187.985V42.3144C187.527 42.8621 186.947 43.2937 186.291 43.5737C185.635 43.8537 184.923 43.9741 184.211 43.925C181.545 43.925 179.278 42.025 179.278 38.4584V30.3557H183.238V37.8784C183.205 38.1928 183.241 38.5106 183.343 38.8097C183.445 39.1089 183.611 39.3822 183.83 39.6106C184.049 39.839 184.314 40.017 184.609 40.1324C184.902 40.2477 185.218 40.2976 185.534 40.2784C186.986 40.2784 187.989 39.4344 187.989 37.5597V30.3597L191.945 30.3557Z" fill="#252525"/>
<path d="M214.651 35.4504V43.5544H210.691V35.793C210.691 34.473 210.058 33.629 208.791 33.629C207.471 33.629 206.731 34.553 206.731 36.1104V43.5544H202.773V35.793C202.773 34.473 202.139 33.629 200.871 33.629C199.551 33.629 198.813 34.553 198.813 36.1104V43.5544H194.853V30.3544H198.813V31.5677C199.223 31.0294 199.762 30.6025 200.379 30.3261C200.998 30.0496 201.675 29.9324 202.35 29.985C203.027 29.9518 203.702 30.0949 204.309 30.4001C204.914 30.7052 205.43 31.1622 205.807 31.7264C206.246 31.1361 206.827 30.6668 207.497 30.3622C208.166 30.0577 208.902 29.928 209.635 29.985C212.666 29.9864 214.651 32.1504 214.651 35.4504Z" fill="#252525"/>
<path d="M218.001 30.2743C219.623 30.2743 220.939 28.9586 220.939 27.3356C220.939 25.7127 219.623 24.397 218.001 24.397C216.378 24.397 215.062 25.7127 215.062 27.3356C215.062 28.9586 216.378 30.2743 218.001 30.2743Z" fill="#252525"/>
</svg>
