<svg width="185" height="71" viewBox="0 0 185 71" fill="none" xmlns="http://www.w3.org/2000/svg">
<rect x="0.939209" y="0.411865" width="183.696" height="70" rx="35" fill="white"/>
<path d="M88.5537 50.6499H91.2881V40.3356H88.5537V50.6499ZM88.5537 38.7271H91.2881V36.2742H88.5537V38.7271Z" fill="#252525"/>
<path d="M93.0498 54.0278H95.7842V49.4839H95.8245C96.4075 50.3685 97.3525 50.9516 98.8001 50.9516C101.454 50.9516 103.264 48.8405 103.264 45.5029C103.264 42.2859 101.514 40.0542 98.78 40.0542C97.3726 40.0542 96.4075 40.7177 95.744 41.6224H95.6837V40.3357H93.0498V54.0278ZM98.2171 48.6796C96.5885 48.6796 95.7239 47.4532 95.7239 45.5833C95.7239 43.7336 96.4075 42.2658 98.1165 42.2658C99.8054 42.2658 100.489 43.633 100.489 45.5833C100.489 47.5336 99.6044 48.6796 98.2171 48.6796Z" fill="#252525"/>
<path d="M108.718 50.9516C111.292 50.9516 113.061 49.705 113.061 47.6341C113.061 45.2214 111.151 44.7389 109.422 44.377C107.954 44.0754 106.587 43.9949 106.587 43.1103C106.587 42.3664 107.291 41.9642 108.356 41.9642C109.523 41.9642 110.226 42.3664 110.347 43.4722H112.82C112.619 41.4013 111.111 40.0542 108.397 40.0542C106.044 40.0542 104.194 41.1198 104.194 43.3515C104.194 45.6034 106.004 46.1061 107.854 46.468C109.261 46.7494 110.568 46.85 110.568 47.8352C110.568 48.559 109.884 49.0214 108.678 49.0214C107.452 49.0214 106.607 48.4987 106.426 47.3124H103.893C104.054 49.504 105.723 50.9516 108.718 50.9516Z" fill="#252525"/>
<path d="M123.443 50.65V40.3357H120.708V46.287C120.708 47.6542 119.924 48.6193 118.637 48.6193C117.471 48.6193 116.928 47.9558 116.928 46.7494V40.3357H114.214V47.2119C114.214 49.4637 115.501 50.9315 117.793 50.9315C119.241 50.9315 120.045 50.3886 120.749 49.4436H120.809V50.65H123.443Z" fill="#252525"/>
<path d="M125.211 50.65H127.946V44.6584C127.946 43.2912 128.69 42.4066 129.796 42.4066C130.801 42.4066 131.384 43.0097 131.384 44.1759V50.65H134.118V44.6584C134.118 43.2912 134.822 42.4066 135.968 42.4066C136.973 42.4066 137.557 43.0097 137.557 44.1759V50.65H140.291V43.7135C140.291 41.4616 139.064 40.0542 136.893 40.0542C135.586 40.0542 134.5 40.7378 133.797 41.8637H133.757C133.254 40.778 132.208 40.0542 130.901 40.0542C129.474 40.0542 128.469 40.778 127.906 41.723H127.845V40.3357H125.211V50.65Z" fill="#252525"/>
<path d="M88.5938 32.9839H91.3281V18.6082H88.5938V32.9839Z" fill="#252525"/>
<path d="M98.0141 33.2856C101.211 33.2856 103.403 30.9131 103.403 27.8369C103.403 24.7607 101.211 22.3882 98.0141 22.3882C94.8173 22.3882 92.6257 24.7607 92.6257 27.8369C92.6257 30.9131 94.8173 33.2856 98.0141 33.2856ZM98.0141 31.1946C96.3252 31.1946 95.4004 29.8475 95.4004 27.8369C95.4004 25.8263 96.3252 24.4591 98.0141 24.4591C99.6829 24.4591 100.628 25.8263 100.628 27.8369C100.628 29.8475 99.6829 31.1946 98.0141 31.1946Z" fill="#252525"/>
<path d="M109.218 36.5026C110.746 36.5026 112.073 36.1407 112.937 35.3364C113.701 34.6327 114.164 33.6475 114.164 32.1999V22.6697H111.53V23.7554H111.489C110.866 22.8908 109.921 22.3882 108.634 22.3882C106.021 22.3882 104.171 24.3586 104.171 27.4348C104.171 30.5512 106.423 32.3607 108.715 32.3607C110.022 32.3607 110.806 31.838 111.409 31.1544H111.469V32.2803C111.469 33.6877 110.726 34.4316 109.177 34.4316C107.911 34.4316 107.328 33.929 107.106 33.2856H104.392C104.674 35.2962 106.403 36.5026 109.218 36.5026ZM109.177 30.1692C107.77 30.1692 106.845 29.1438 106.845 27.3946C106.845 25.6655 107.77 24.5797 109.157 24.5797C110.806 24.5797 111.61 25.8665 111.61 27.3745C111.61 28.9025 110.906 30.1692 109.177 30.1692Z" fill="#252525"/>
<path d="M120.81 33.2856C124.007 33.2856 126.198 30.9131 126.198 27.8369C126.198 24.7607 124.007 22.3882 120.81 22.3882C117.613 22.3882 115.422 24.7607 115.422 27.8369C115.422 30.9131 117.613 33.2856 120.81 33.2856ZM120.81 31.1946C119.121 31.1946 118.196 29.8475 118.196 27.8369C118.196 25.8263 119.121 24.4591 120.81 24.4591C122.479 24.4591 123.424 25.8263 123.424 27.8369C123.424 29.8475 122.479 31.1946 120.81 31.1946Z" fill="#252525"/>
<path d="M128.595 29.0431H140.418V26.6907H128.595V29.0431Z" fill="#252525"/>
<path d="M141.285 38.5836C141.285 38.1209 141.66 37.7458 142.123 37.7458H143.798C144.261 37.7458 144.636 38.1209 144.636 38.5836C144.636 39.0462 144.261 39.4213 143.798 39.4213H142.123C141.66 39.4213 141.285 39.0462 141.285 38.5836Z" fill="#252525"/>
<path fill-rule="evenodd" clip-rule="evenodd" d="M60.9392 15.4119C71.9849 15.4119 80.9392 24.3662 80.9392 35.4119C80.9392 46.4576 71.9849 55.4119 60.9392 55.4119C49.8935 55.4119 40.9392 46.4576 40.9392 35.4119C40.9392 24.3662 49.8935 15.4119 60.9392 15.4119ZM60.2163 16.9085C57.9347 17.2296 55.7621 19.0629 54.0756 22.1293C53.5864 23.0187 53.145 24.0013 52.7603 25.0623C55.0535 24.486 57.5726 24.1463 60.2163 24.0937V16.9085ZM51.07 25.5427C51.5483 24.0414 52.1335 22.6603 52.8088 21.4325C53.6448 19.9125 54.637 18.5998 55.7549 17.5916C49.676 19.3571 44.8844 24.1487 43.119 30.2276C44.1272 29.1097 45.4398 28.1175 46.9599 27.2815C48.1876 26.6062 49.5688 26.021 51.07 25.5427ZM50.5896 27.233C50.0134 29.5262 49.6736 32.0453 49.6211 34.689H42.4358C42.7569 32.4073 44.5903 30.2347 47.6566 28.5483C48.546 28.0591 49.5287 27.6177 50.5896 27.233ZM51.0672 34.689C51.1269 31.8039 51.5422 29.0953 52.2294 26.7021C54.6226 26.0149 57.3313 25.5995 60.2163 25.5398V28.6627C59.14 31.4181 56.9448 33.6131 54.1893 34.689H51.0672ZM49.6211 36.1348H42.4358C42.7569 38.4165 44.5903 40.589 47.6566 42.2755C48.546 42.7647 49.5287 43.2061 50.5896 43.5908C50.0134 41.2976 49.6736 38.7785 49.6211 36.1348ZM52.2294 44.1217C51.5422 41.7285 51.1269 39.0199 51.0672 36.1348H54.1893C56.9448 37.2107 59.1401 39.4057 60.2163 42.1611V45.284C57.3313 45.2243 54.6226 44.8089 52.2294 44.1217ZM51.07 45.2811C49.5688 44.8028 48.1876 44.2176 46.9599 43.5423C45.4398 42.7063 44.1272 41.7141 43.119 40.5962C44.8844 46.6751 49.676 51.4667 55.7549 53.2321C54.637 52.2239 53.6448 50.9113 52.8088 49.3912C52.1335 48.1635 51.5483 46.7823 51.07 45.2811ZM60.2163 53.9153C57.9347 53.5942 55.7621 51.7608 54.0756 48.6945C53.5864 47.8051 53.145 46.8224 52.7603 45.7615C55.0535 46.3377 57.5726 46.6775 60.2163 46.73V53.9153ZM66.1235 53.2321C67.2414 52.2239 68.2336 50.9113 69.0697 49.3912C69.7449 48.1635 70.3301 46.7823 70.8084 45.2811C72.3096 44.8028 73.6908 44.2176 74.9186 43.5423C76.4386 42.7063 77.7513 41.7141 78.7594 40.5962C76.994 46.6751 72.2024 51.4667 66.1235 53.2321ZM69.1181 45.7615C68.7334 46.8224 68.292 47.8051 67.8028 48.6945C66.1164 51.7608 63.9438 53.5942 61.6621 53.9153V46.73C64.3058 46.6775 66.8249 46.3377 69.1181 45.7615ZM71.2888 43.5908C72.3497 43.2061 73.3324 42.7647 74.2218 42.2755C77.2881 40.589 79.1215 38.4165 79.4426 36.1348H72.2573C72.2048 38.7785 71.865 41.2976 71.2888 43.5908ZM70.8113 36.1348C70.7516 39.0199 70.3362 41.7285 69.649 44.1217C67.2558 44.8089 64.5472 45.2243 61.6621 45.284V42.1634C62.738 39.407 64.9337 37.211 67.69 36.1348H70.8113ZM72.2573 34.689H79.4426C79.1215 32.4073 77.2881 30.2347 74.2218 28.5483C73.3324 28.0591 72.3497 27.6177 71.2888 27.233C71.865 29.5262 72.2048 32.0453 72.2573 34.689ZM69.649 26.7021C70.3362 29.0953 70.7516 31.8039 70.8113 34.689H67.69C64.9337 33.6128 62.738 31.4168 61.6621 28.6604V25.5398C64.5472 25.5995 67.2558 26.0149 69.649 26.7021ZM70.8084 25.5427C72.3096 26.021 73.6908 26.6062 74.9186 27.2815C76.4386 28.1175 77.7513 29.1097 78.7594 30.2276C76.994 24.1487 72.2024 19.3571 66.1235 17.5916C67.2414 18.5998 68.2336 19.9125 69.0697 21.4325C69.7449 22.6603 70.3301 24.0414 70.8084 25.5427ZM61.6621 16.9085C63.9438 17.2296 66.1164 19.0629 67.8028 22.1293C68.292 23.0187 68.7334 24.0013 69.1181 25.0623C66.8249 24.486 64.3058 24.1463 61.6621 24.0937V16.9085Z" fill="#252525"/>
</svg>
