<svg width="85" height="41" viewBox="0 0 85 41" fill="none" xmlns="http://www.w3.org/2000/svg">
<path d="M0 24.4893H2.51815V36.8365H0V24.4893Z" fill="#252525"/>
<path d="M3.97872 32.6059C3.97706 31.7191 4.23852 30.8516 4.73003 30.1134C5.22154 29.3752 5.921 28.7994 6.73989 28.4588C7.55874 28.1183 8.46024 28.0283 9.33029 28.2003C10.2003 28.3723 10.9998 28.7986 11.6274 29.4251C12.2552 30.0516 12.6829 30.8503 12.8565 31.72C13.0302 32.5897 12.9419 33.4914 12.6029 34.3109C12.2639 35.1304 11.6894 35.8309 10.9521 36.3238C10.2148 36.8168 9.34789 37.0798 8.46104 37.0798C7.87118 37.0865 7.28603 36.9755 6.73972 36.7531C6.19342 36.5308 5.69699 36.2017 5.27953 35.7849C4.86207 35.3683 4.53199 34.8725 4.30862 34.3265C4.08525 33.7807 3.97309 33.1957 3.97872 32.6059ZM10.4083 32.6059C10.3985 32.2231 10.2759 31.8516 10.056 31.5381C9.83606 31.2245 9.5286 30.9828 9.17198 30.8431C8.81535 30.7034 8.42549 30.672 8.05118 30.7527C7.67678 30.8334 7.33456 31.0227 7.06718 31.297C6.79989 31.5712 6.61936 31.9182 6.5482 32.2946C6.47704 32.6708 6.51844 33.0598 6.66718 33.4127C6.81598 33.7656 7.06549 34.0668 7.38451 34.2786C7.70362 34.4905 8.07802 34.6035 8.46104 34.6036C8.723 34.611 8.98371 34.564 9.22664 34.4655C9.46958 34.367 9.68949 34.2193 9.87251 34.0315C10.0554 33.8438 10.1976 33.6202 10.2898 33.3749C10.382 33.1295 10.4224 32.8677 10.4083 32.6059Z" fill="#252525"/>
<path d="M23.0658 28.3759V36.4171C23.0658 39.2626 20.8414 40.4629 18.5919 40.4629C17.8009 40.5218 17.0089 40.3618 16.3027 40.0005C15.5965 39.6393 15.0033 39.0907 14.5881 38.4149L16.7537 37.1642C16.9255 37.5105 17.1975 37.7973 17.5342 37.9874C17.8709 38.1774 18.2569 38.2621 18.6423 38.2302C18.8959 38.2725 19.1558 38.2559 19.402 38.1818C19.6482 38.1077 19.8741 37.9781 20.0622 37.8029C20.2503 37.6277 20.3958 37.4117 20.4872 37.1714C20.5787 36.9311 20.6137 36.6731 20.5896 36.4171V35.6365C20.2936 36.0007 19.9158 36.2901 19.4871 36.4811C19.0584 36.6721 18.5907 36.7595 18.1219 36.7361C16.9821 36.7361 15.889 36.2833 15.083 35.4774C14.277 34.6714 13.8242 33.5782 13.8242 32.4384C13.8242 31.2986 14.277 30.2055 15.083 29.3996C15.889 28.5936 16.9821 28.1408 18.1219 28.1408C18.5904 28.1194 19.0575 28.2077 19.4859 28.3985C19.9143 28.5895 20.2923 28.8777 20.5896 29.2404V28.401L23.0658 28.3759ZM20.5896 32.4384C20.6064 32.0303 20.5006 31.6263 20.2861 31.2786C20.0714 30.931 19.7577 30.6554 19.3853 30.4875C19.0128 30.3195 18.5986 30.2668 18.1959 30.3361C17.7933 30.4054 17.4206 30.5935 17.1257 30.8763C16.8308 31.1591 16.6272 31.5237 16.5412 31.9231C16.4551 32.3224 16.4904 32.7385 16.6427 33.1176C16.795 33.4968 17.0571 33.8217 17.3955 34.0507C17.7339 34.2798 18.133 34.4022 18.5415 34.4026C18.8083 34.4214 19.0759 34.3843 19.3273 34.2934C19.5788 34.2024 19.8084 34.0599 20.0014 33.8749C20.1942 33.6898 20.3463 33.4663 20.4477 33.219C20.549 32.9716 20.5974 32.7057 20.5896 32.4384Z" fill="#252525"/>
<path d="M24.5183 32.6059C24.5166 31.7191 24.7781 30.8516 25.2696 30.1134C25.7611 29.3752 26.4606 28.7994 27.2794 28.4588C28.0983 28.1183 28.9998 28.0283 29.8698 28.2003C30.7399 28.3723 31.5393 28.7986 32.1671 29.4251C32.7947 30.0516 33.2224 30.8503 33.3961 31.72C33.5697 32.5897 33.4815 33.4914 33.1424 34.3109C32.8034 35.1304 32.2289 35.8309 31.4917 36.3238C30.7543 36.8168 29.8874 37.0798 29.0006 37.0798C28.4108 37.0865 27.8256 36.9755 27.2792 36.7531C26.7329 36.5308 26.2365 36.2017 25.8191 35.7849C25.4016 35.3683 25.0715 34.8725 24.8481 34.3265C24.6248 33.7807 24.5126 33.1957 24.5183 32.6059ZM30.9479 32.6059C30.938 32.2231 30.8154 31.8516 30.5955 31.5381C30.3756 31.2245 30.0681 30.9828 29.7115 30.8431C29.355 30.7034 28.9651 30.672 28.5907 30.7527C28.2163 30.8334 27.8741 31.0227 27.6067 31.297C27.3394 31.5712 27.1589 31.9182 27.0877 32.2946C27.0166 32.6708 27.058 33.0598 27.2067 33.4127C27.3555 33.7656 27.605 34.0668 27.924 34.2786C28.2432 34.4905 28.6176 34.6035 29.0006 34.6036C29.2612 34.6086 29.52 34.5599 29.761 34.4603C30.0019 34.3608 30.2198 34.2127 30.4009 34.0252C30.5821 33.8378 30.7226 33.615 30.8139 33.3708C30.9051 33.1266 30.945 32.8662 30.9311 32.6059H30.9479Z" fill="#252525"/>
<path d="M34.6494 26.1087C34.6494 25.8066 34.739 25.5112 34.9068 25.26C35.0747 25.0088 35.3133 24.813 35.5924 24.6973C35.8716 24.5817 36.1787 24.5515 36.4751 24.6104C36.7715 24.6693 37.0436 24.8149 37.2573 25.0285C37.471 25.2421 37.6164 25.5143 37.6754 25.8107C37.7344 26.107 37.7041 26.4142 37.5885 26.6933C37.4729 26.9724 37.2771 27.2111 37.0259 27.3789C36.7746 27.5468 36.4793 27.6364 36.1771 27.6364C35.7726 27.6342 35.3853 27.4725 35.0993 27.1865C34.8132 26.9005 34.6516 26.5132 34.6494 26.1087ZM34.9096 28.375H37.4277V36.836H34.9096V28.375Z" fill="#252525"/>
<path d="M48.4067 32.6059C48.4372 33.1652 48.3568 33.725 48.1701 34.2531C47.9834 34.7812 47.6941 35.2671 47.3189 35.683C46.9436 36.0988 46.4898 36.4363 45.9836 36.676C45.4773 36.9158 44.9287 37.053 44.3693 37.0798C43.8996 37.1023 43.4306 37.0216 42.9956 36.8432C42.5605 36.6648 42.1698 36.3932 41.8511 36.0474V40.2443H39.333V28.3754H41.8511V29.1728C42.1698 28.8271 42.5605 28.5554 42.9956 28.377C43.4306 28.1986 43.8996 28.1179 44.3693 28.1404C44.928 28.1672 45.4759 28.3042 45.9815 28.5434C46.4872 28.7827 46.9406 29.1194 47.3157 29.5344C47.6909 29.9493 47.9804 30.4342 48.1676 30.9613C48.3549 31.4884 48.4361 32.0473 48.4067 32.6059ZM45.8885 32.6059C45.8786 32.2119 45.7533 31.8295 45.5281 31.5061C45.3029 31.1827 44.9879 30.9323 44.622 30.7862C44.256 30.64 43.8551 30.6043 43.4692 30.6837C43.0831 30.763 42.7288 30.9538 42.4502 31.2325C42.1715 31.5111 41.9807 31.8654 41.9014 32.2514C41.8221 32.6375 41.8577 33.0383 42.0038 33.4042C42.1501 33.7702 42.4004 34.0853 42.7238 34.3103C43.0473 34.5355 43.4297 34.6608 43.8237 34.6708C44.0986 34.6883 44.3741 34.6467 44.6317 34.5489C44.8892 34.4511 45.1228 34.2992 45.3168 34.1037C45.5108 33.908 45.6607 33.6732 45.7565 33.4149C45.8521 33.1566 45.8915 32.8807 45.8717 32.6059H45.8885Z" fill="#252525"/>
<path d="M56.2468 34.3019C56.2468 36.2492 54.5681 37.0802 52.7214 37.0802C51.9837 37.1455 51.2434 36.9885 50.5956 36.6295C49.948 36.2705 49.4225 35.7259 49.0869 35.0657L51.2861 33.815C51.3754 34.1204 51.5665 34.386 51.8275 34.5676C52.0887 34.7493 52.4041 34.8363 52.7214 34.8139C53.3342 34.8139 53.6363 34.6208 53.6363 34.2851C53.6363 33.3533 49.4394 33.8486 49.4394 30.9276C49.4394 29.0809 51.0007 28.1492 52.7969 28.1492C53.4598 28.1291 54.116 28.2865 54.6975 28.6053C55.279 28.9241 55.7646 29.3926 56.1041 29.9622L53.8966 31.1206C53.7991 30.8989 53.6393 30.7103 53.4366 30.5777C53.2339 30.4451 52.9972 30.3741 52.755 30.3735C52.3185 30.3735 52.0499 30.5414 52.0499 30.852C52.0835 31.8173 56.2468 31.1709 56.2468 34.3019Z" fill="#252525"/>
<path d="M65.5136 28.376V36.8369H62.9954V36.048C62.7025 36.3985 62.3308 36.6748 61.9106 36.8543C61.4905 37.0337 61.0338 37.1112 60.578 37.0804C58.8993 37.0804 57.4136 35.8632 57.4136 33.5718V28.376H59.9317V33.2025C59.9096 33.4081 59.9336 33.6161 60.0018 33.8114C60.0701 34.0067 60.1809 34.1843 60.3265 34.3314C60.4719 34.4785 60.6483 34.5913 60.8428 34.6617C61.0373 34.7322 61.2451 34.7584 61.451 34.7385C62.3744 34.7385 63.0207 34.2013 63.0207 33.001V28.376H65.5136Z" fill="#252525"/>
<path d="M80.0682 31.6486V36.836H77.55V31.8669C77.55 31.0276 77.1387 30.4735 76.3329 30.4735C75.5272 30.4735 75.0067 31.0695 75.0067 32.0684V36.836H72.4886V31.8669C72.4886 31.0276 72.0857 30.4735 71.2714 30.4735C70.4573 30.4735 69.9537 31.0695 69.9537 32.0684V36.836H67.4355V28.3751H69.9537V29.1557C70.2169 28.8109 70.562 28.5374 70.9579 28.3601C71.3537 28.1827 71.7875 28.107 72.22 28.1401C72.6543 28.1189 73.0867 28.2108 73.475 28.4063C73.8634 28.602 74.1944 28.8949 74.436 29.2565C74.7169 28.8784 75.089 28.5777 75.5177 28.3825C75.9463 28.1873 76.4174 28.1038 76.8869 28.1401C78.8008 28.1401 80.0682 29.5334 80.0682 31.6486Z" fill="#252525"/>
<path d="M82.2172 28.3259C83.2556 28.3259 84.0973 27.484 84.0973 26.4456C84.0973 25.4072 83.2556 24.5654 82.2172 24.5654C81.1788 24.5654 80.3369 25.4072 80.3369 26.4456C80.3369 27.484 81.1788 28.3259 82.2172 28.3259Z" fill="#252525"/>
<path d="M28.497 18.0848C33.3599 18.0848 37.3021 14.1426 37.3021 9.27968C37.3021 4.41679 33.3599 0.474609 28.497 0.474609C23.6341 0.474609 19.6919 4.41679 19.6919 9.27968C19.6919 14.1426 23.6341 18.0848 28.497 18.0848Z" fill="#252525"/>
<path d="M48.1801 18.0848C53.0431 18.0848 56.9852 14.1426 56.9852 9.27968C56.9852 4.41679 53.0431 0.474609 48.1801 0.474609C43.3172 0.474609 39.375 4.41679 39.375 9.27968C39.375 14.1426 43.3172 18.0848 48.1801 18.0848Z" fill="#252525"/>
<path d="M17.6184 0.474609H0.0166016V18.0764H17.6184V0.474609Z" fill="#252525"/>
</svg>
